%FSLAX44Y44*%
%MOMM*%
G71*
G01*
G75*
G04 Layer_Color=8388736*
%ADD10R,1.0000X0.9000*%
%ADD11R,1.0000X1.0000*%
%ADD12R,1.3000X1.5000*%
%ADD13O,2.1000X0.4500*%
G04:AMPARAMS|DCode=14|XSize=1.6mm|YSize=5.7mm|CornerRadius=0.08mm|HoleSize=0mm|Usage=FLASHONLY|Rotation=270.000|XOffset=0mm|YOffset=0mm|HoleType=Round|Shape=RoundedRectangle|*
%AMROUNDEDRECTD14*
21,1,1.6000,5.5400,0,0,270.0*
21,1,1.4400,5.7000,0,0,270.0*
1,1,0.1600,-2.7700,-0.7200*
1,1,0.1600,-2.7700,0.7200*
1,1,0.1600,2.7700,0.7200*
1,1,0.1600,2.7700,-0.7200*
%
%ADD14ROUNDEDRECTD14*%
G04:AMPARAMS|DCode=15|XSize=1.32mm|YSize=1.68mm|CornerRadius=0.066mm|HoleSize=0mm|Usage=FLASHONLY|Rotation=270.000|XOffset=0mm|YOffset=0mm|HoleType=Round|Shape=RoundedRectangle|*
%AMROUNDEDRECTD15*
21,1,1.3200,1.5480,0,0,270.0*
21,1,1.1880,1.6800,0,0,270.0*
1,1,0.1320,-0.7740,-0.5940*
1,1,0.1320,-0.7740,0.5940*
1,1,0.1320,0.7740,0.5940*
1,1,0.1320,0.7740,-0.5940*
%
%ADD15ROUNDEDRECTD15*%
G04:AMPARAMS|DCode=16|XSize=0.8mm|YSize=0.8mm|CornerRadius=0.04mm|HoleSize=0mm|Usage=FLASHONLY|Rotation=270.000|XOffset=0mm|YOffset=0mm|HoleType=Round|Shape=RoundedRectangle|*
%AMROUNDEDRECTD16*
21,1,0.8000,0.7200,0,0,270.0*
21,1,0.7200,0.8000,0,0,270.0*
1,1,0.0800,-0.3600,-0.3600*
1,1,0.0800,-0.3600,0.3600*
1,1,0.0800,0.3600,0.3600*
1,1,0.0800,0.3600,-0.3600*
%
%ADD16ROUNDEDRECTD16*%
%ADD17R,0.8000X1.0500*%
%ADD18R,1.1000X0.6500*%
%ADD19R,0.9000X1.0000*%
G04:AMPARAMS|DCode=20|XSize=0.45mm|YSize=1.45mm|CornerRadius=0.045mm|HoleSize=0mm|Usage=FLASHONLY|Rotation=270.000|XOffset=0mm|YOffset=0mm|HoleType=Round|Shape=RoundedRectangle|*
%AMROUNDEDRECTD20*
21,1,0.4500,1.3600,0,0,270.0*
21,1,0.3600,1.4500,0,0,270.0*
1,1,0.0900,-0.6800,-0.1800*
1,1,0.0900,-0.6800,0.1800*
1,1,0.0900,0.6800,0.1800*
1,1,0.0900,0.6800,-0.1800*
%
%ADD20ROUNDEDRECTD20*%
%ADD21R,1.0000X1.0000*%
G04:AMPARAMS|DCode=22|XSize=0.9mm|YSize=1mm|CornerRadius=0.045mm|HoleSize=0mm|Usage=FLASHONLY|Rotation=90.000|XOffset=0mm|YOffset=0mm|HoleType=Round|Shape=RoundedRectangle|*
%AMROUNDEDRECTD22*
21,1,0.9000,0.9100,0,0,90.0*
21,1,0.8100,1.0000,0,0,90.0*
1,1,0.0900,0.4550,0.4050*
1,1,0.0900,0.4550,-0.4050*
1,1,0.0900,-0.4550,-0.4050*
1,1,0.0900,-0.4550,0.4050*
%
%ADD22ROUNDEDRECTD22*%
%ADD23C,0.9000*%
%ADD24C,0.1524*%
%ADD25C,1.0000*%
%ADD26C,0.4000*%
%ADD27C,0.2540*%
%ADD28C,0.5000*%
%ADD29C,0.8000*%
%ADD30C,0.6000*%
%ADD31C,0.3000*%
%ADD32C,0.7000*%
%ADD33R,3.4000X0.6000*%
%ADD34R,1.8000X0.9000*%
%ADD35C,1.5000*%
%ADD36R,1.5000X1.5000*%
%ADD37R,1.5000X1.5000*%
%ADD38C,1.0000*%
%ADD39C,1.3500*%
%ADD40R,1.3500X1.3500*%
%ADD41C,0.6000*%
%ADD42C,0.1000*%
%ADD43C,0.1778*%
%ADD44C,0.2500*%
%ADD45C,0.2000*%
%ADD46C,0.1540*%
%ADD47C,0.1270*%
%ADD48C,0.1500*%
%ADD49R,1.1000X1.0000*%
%ADD50R,1.1000X1.1000*%
%ADD51R,1.4000X1.6000*%
%ADD52O,2.2000X0.5500*%
G04:AMPARAMS|DCode=53|XSize=1.7mm|YSize=5.8mm|CornerRadius=0.13mm|HoleSize=0mm|Usage=FLASHONLY|Rotation=270.000|XOffset=0mm|YOffset=0mm|HoleType=Round|Shape=RoundedRectangle|*
%AMROUNDEDRECTD53*
21,1,1.7000,5.5400,0,0,270.0*
21,1,1.4400,5.8000,0,0,270.0*
1,1,0.2600,-2.7700,-0.7200*
1,1,0.2600,-2.7700,0.7200*
1,1,0.2600,2.7700,0.7200*
1,1,0.2600,2.7700,-0.7200*
%
%ADD53ROUNDEDRECTD53*%
G04:AMPARAMS|DCode=54|XSize=1.42mm|YSize=1.78mm|CornerRadius=0.116mm|HoleSize=0mm|Usage=FLASHONLY|Rotation=270.000|XOffset=0mm|YOffset=0mm|HoleType=Round|Shape=RoundedRectangle|*
%AMROUNDEDRECTD54*
21,1,1.4200,1.5480,0,0,270.0*
21,1,1.1880,1.7800,0,0,270.0*
1,1,0.2320,-0.7740,-0.5940*
1,1,0.2320,-0.7740,0.5940*
1,1,0.2320,0.7740,0.5940*
1,1,0.2320,0.7740,-0.5940*
%
%ADD54ROUNDEDRECTD54*%
G04:AMPARAMS|DCode=55|XSize=0.9mm|YSize=0.9mm|CornerRadius=0.09mm|HoleSize=0mm|Usage=FLASHONLY|Rotation=270.000|XOffset=0mm|YOffset=0mm|HoleType=Round|Shape=RoundedRectangle|*
%AMROUNDEDRECTD55*
21,1,0.9000,0.7200,0,0,270.0*
21,1,0.7200,0.9000,0,0,270.0*
1,1,0.1800,-0.3600,-0.3600*
1,1,0.1800,-0.3600,0.3600*
1,1,0.1800,0.3600,0.3600*
1,1,0.1800,0.3600,-0.3600*
%
%ADD55ROUNDEDRECTD55*%
%ADD56R,0.9000X1.1500*%
%ADD57R,1.2000X0.7500*%
%ADD58R,1.0000X1.1000*%
G04:AMPARAMS|DCode=59|XSize=0.55mm|YSize=1.55mm|CornerRadius=0.095mm|HoleSize=0mm|Usage=FLASHONLY|Rotation=270.000|XOffset=0mm|YOffset=0mm|HoleType=Round|Shape=RoundedRectangle|*
%AMROUNDEDRECTD59*
21,1,0.5500,1.3600,0,0,270.0*
21,1,0.3600,1.5500,0,0,270.0*
1,1,0.1900,-0.6800,-0.1800*
1,1,0.1900,-0.6800,0.1800*
1,1,0.1900,0.6800,0.1800*
1,1,0.1900,0.6800,-0.1800*
%
%ADD59ROUNDEDRECTD59*%
%ADD60R,1.1000X1.1000*%
G04:AMPARAMS|DCode=61|XSize=1mm|YSize=1.1mm|CornerRadius=0.095mm|HoleSize=0mm|Usage=FLASHONLY|Rotation=90.000|XOffset=0mm|YOffset=0mm|HoleType=Round|Shape=RoundedRectangle|*
%AMROUNDEDRECTD61*
21,1,1.0000,0.9100,0,0,90.0*
21,1,0.8100,1.1000,0,0,90.0*
1,1,0.1900,0.4550,0.4050*
1,1,0.1900,0.4550,-0.4050*
1,1,0.1900,-0.4550,-0.4050*
1,1,0.1900,-0.4550,0.4050*
%
%ADD61ROUNDEDRECTD61*%
%ADD62C,1.6000*%
%ADD63R,1.6000X1.6000*%
%ADD64R,1.6000X1.6000*%
%ADD65C,1.1000*%
%ADD66C,1.4500*%
%ADD67R,1.4500X1.4500*%
D49*
X858750Y719750D02*
D03*
Y736750D02*
D03*
X792750Y719750D02*
D03*
Y736750D02*
D03*
X898750Y858750D02*
D03*
Y841750D02*
D03*
X791750Y921750D02*
D03*
Y938750D02*
D03*
X806750Y921750D02*
D03*
Y938750D02*
D03*
X873750Y719750D02*
D03*
Y736750D02*
D03*
X916750Y655750D02*
D03*
Y638750D02*
D03*
X766750Y580750D02*
D03*
Y563750D02*
D03*
Y612750D02*
D03*
Y595750D02*
D03*
X821750Y921750D02*
D03*
Y938750D02*
D03*
X1156250Y719750D02*
D03*
Y736750D02*
D03*
X1090250Y719750D02*
D03*
Y736750D02*
D03*
X1196250Y858750D02*
D03*
Y841750D02*
D03*
X1089250Y921750D02*
D03*
Y938750D02*
D03*
X1104250Y921750D02*
D03*
Y938750D02*
D03*
X1171250Y719750D02*
D03*
Y736750D02*
D03*
X1214250Y655750D02*
D03*
Y638750D02*
D03*
X1064250Y580750D02*
D03*
Y563750D02*
D03*
Y612750D02*
D03*
Y595750D02*
D03*
X1119250Y921750D02*
D03*
Y938750D02*
D03*
D50*
X878750Y701250D02*
D03*
Y685250D02*
D03*
X883820Y842290D02*
D03*
Y858290D02*
D03*
X881750Y528250D02*
D03*
Y512250D02*
D03*
X752750Y511250D02*
D03*
Y527250D02*
D03*
X1176250Y701250D02*
D03*
Y685250D02*
D03*
X1181320Y842290D02*
D03*
Y858290D02*
D03*
X1179250Y528250D02*
D03*
Y512250D02*
D03*
X1050250Y511250D02*
D03*
Y527250D02*
D03*
D51*
X885250Y791250D02*
D03*
X902250D02*
D03*
X855250Y535250D02*
D03*
X838250D02*
D03*
X1182750Y791250D02*
D03*
X1199750D02*
D03*
X1152750Y535250D02*
D03*
X1135750D02*
D03*
D52*
X862440Y761050D02*
D03*
Y767550D02*
D03*
Y774050D02*
D03*
Y780550D02*
D03*
Y787050D02*
D03*
Y793550D02*
D03*
Y800050D02*
D03*
Y806550D02*
D03*
Y813050D02*
D03*
Y819550D02*
D03*
Y826050D02*
D03*
Y832550D02*
D03*
Y839050D02*
D03*
Y845550D02*
D03*
X793440Y761050D02*
D03*
Y767550D02*
D03*
Y774050D02*
D03*
Y780550D02*
D03*
Y787050D02*
D03*
Y793550D02*
D03*
Y800050D02*
D03*
Y806550D02*
D03*
Y813050D02*
D03*
Y819550D02*
D03*
Y826050D02*
D03*
Y832550D02*
D03*
Y839050D02*
D03*
Y845550D02*
D03*
X1159940Y761050D02*
D03*
Y767550D02*
D03*
Y774050D02*
D03*
Y780550D02*
D03*
Y787050D02*
D03*
Y793550D02*
D03*
Y800050D02*
D03*
Y806550D02*
D03*
Y813050D02*
D03*
Y819550D02*
D03*
Y826050D02*
D03*
Y832550D02*
D03*
Y839050D02*
D03*
Y845550D02*
D03*
X1090940Y761050D02*
D03*
Y767550D02*
D03*
Y774050D02*
D03*
Y780550D02*
D03*
Y787050D02*
D03*
Y793550D02*
D03*
Y800050D02*
D03*
Y806550D02*
D03*
Y813050D02*
D03*
Y819550D02*
D03*
Y826050D02*
D03*
Y832550D02*
D03*
Y839050D02*
D03*
Y845550D02*
D03*
D53*
X878750Y555250D02*
D03*
Y602250D02*
D03*
X1176250Y555250D02*
D03*
Y602250D02*
D03*
D54*
X831750Y601250D02*
D03*
Y564250D02*
D03*
X1129250Y601250D02*
D03*
Y564250D02*
D03*
D55*
X781250Y661250D02*
D03*
X764750D02*
D03*
X1078750D02*
D03*
X1062250D02*
D03*
D56*
X812750Y634000D02*
D03*
X806250Y654500D02*
D03*
X819250D02*
D03*
X1110250Y634000D02*
D03*
X1103750Y654500D02*
D03*
X1116750D02*
D03*
D57*
X807750Y600750D02*
D03*
Y591250D02*
D03*
Y581750D02*
D03*
X783750D02*
D03*
Y591250D02*
D03*
Y600750D02*
D03*
X1105250D02*
D03*
Y591250D02*
D03*
Y581750D02*
D03*
X1081250D02*
D03*
Y591250D02*
D03*
Y600750D02*
D03*
D58*
X764250Y648250D02*
D03*
X781250D02*
D03*
X831950Y869070D02*
D03*
X848950D02*
D03*
X813390D02*
D03*
X796390D02*
D03*
X1061750Y648250D02*
D03*
X1078750D02*
D03*
X1129450Y869070D02*
D03*
X1146450D02*
D03*
X1110890D02*
D03*
X1093890D02*
D03*
D59*
X860270Y701700D02*
D03*
Y695200D02*
D03*
Y688700D02*
D03*
Y682200D02*
D03*
X801270D02*
D03*
Y688700D02*
D03*
Y695200D02*
D03*
Y701700D02*
D03*
X1157770D02*
D03*
Y695200D02*
D03*
Y688700D02*
D03*
Y682200D02*
D03*
X1098770D02*
D03*
Y688700D02*
D03*
Y695200D02*
D03*
Y701700D02*
D03*
D60*
X808510Y720750D02*
D03*
X824510D02*
D03*
X808510Y735990D02*
D03*
X824510D02*
D03*
X787750Y619250D02*
D03*
X803750D02*
D03*
X807750Y564250D02*
D03*
X791750D02*
D03*
X1106010Y720750D02*
D03*
X1122010D02*
D03*
X1106010Y735990D02*
D03*
X1122010D02*
D03*
X1085250Y619250D02*
D03*
X1101250D02*
D03*
X1105250Y564250D02*
D03*
X1089250D02*
D03*
X892740Y735130D02*
D03*
X754010Y869340D02*
D03*
X1190240Y735130D02*
D03*
X1051510Y869340D02*
D03*
D61*
X822250Y966000D02*
D03*
Y982250D02*
D03*
X792250D02*
D03*
Y966000D02*
D03*
X1119750D02*
D03*
Y982250D02*
D03*
X1089750D02*
D03*
Y966000D02*
D03*
D62*
X929150Y516250D02*
D03*
X916750Y926250D02*
D03*
Y986250D02*
D03*
X871750Y926250D02*
D03*
Y986250D02*
D03*
X929080Y860450D02*
D03*
Y835050D02*
D03*
Y758850D02*
D03*
Y733450D02*
D03*
X868580Y890930D02*
D03*
X843180D02*
D03*
X817780D02*
D03*
X792380D02*
D03*
X1226650Y516250D02*
D03*
X1214250Y926250D02*
D03*
Y986250D02*
D03*
X1169250Y926250D02*
D03*
Y986250D02*
D03*
X1226580Y860450D02*
D03*
Y835050D02*
D03*
Y758850D02*
D03*
Y733450D02*
D03*
X1166080Y890930D02*
D03*
X1140680D02*
D03*
X1115280D02*
D03*
X1089880D02*
D03*
D63*
X903750Y516250D02*
D03*
X893980Y890930D02*
D03*
X1201250Y516250D02*
D03*
X1191480Y890930D02*
D03*
D64*
X929080Y809650D02*
D03*
Y708050D02*
D03*
X1226580Y809650D02*
D03*
Y708050D02*
D03*
D65*
X892740Y722430D02*
D03*
X754010Y856640D02*
D03*
Y843940D02*
D03*
Y831240D02*
D03*
Y818540D02*
D03*
Y805840D02*
D03*
Y793140D02*
D03*
Y780440D02*
D03*
Y767740D02*
D03*
Y755040D02*
D03*
Y742340D02*
D03*
Y729640D02*
D03*
Y716940D02*
D03*
Y704240D02*
D03*
X1190240Y722430D02*
D03*
X1051510Y856640D02*
D03*
Y843940D02*
D03*
Y831240D02*
D03*
Y818540D02*
D03*
Y805840D02*
D03*
Y793140D02*
D03*
Y780440D02*
D03*
Y767740D02*
D03*
Y755040D02*
D03*
Y742340D02*
D03*
Y729640D02*
D03*
Y716940D02*
D03*
Y704240D02*
D03*
D66*
X808750Y528250D02*
D03*
X1106250D02*
D03*
D67*
X788750D02*
D03*
X1086250D02*
D03*
M02*
