M48
;Layer_Color=9474304
;FILE_FORMAT=4:4
METRIC,LZ
;TYPE=PLATED
T1F00S00C0.3000
T2F00S00C0.6000
T3F00S00C0.8000
T4F00S00C0.9000
T5F00S00C1.0000
%
T01
X0120825Y0054125
X0122425Y0055225
Y0057225
Y0059225
Y0061225
Y0063225
X0120425Y0063625
Y0065625
X0121425Y0066625
X0122425Y0065625
Y0067625
X0120325Y0075325
X0121425Y0079125
X0120025Y0058125
X0118025
X0116025
X0114025
X0112025
X0109325
Y0059125
Y0060025
X0111625Y0061925
X0114425Y0063625
Y0065625
X0116425
X0118425
Y0063625
X0116425
X0118925Y0068525
X0113625Y0068425
X0111125Y0068225
X0109225Y0065525
X0107525Y0063025
X0106625Y0067925
Y0068725
Y0069525
X0106725Y0074325
X0107825Y0075025
X0106255Y0078055
X0113925Y0078325
X0113425Y0076725
X0114125Y0076125
X0113525Y0074425
X0113225Y0073625
Y0072125
X0117825Y0075325
X0118825Y0054125
X0116825Y0053925
X0113525Y0055125
X0112025
X0110525
X0112025Y0053625
X0107425Y0054225
X0106425Y0055325
X0106125Y0052225
X0092675Y0055225
Y0057225
Y0059225
Y0061225
Y0063225
X0090675Y0063625
Y0065625
X0091675Y0066625
X0092675Y0065625
Y0067625
X0089175Y0068525
X0088675Y0065625
X0086675
X0084675
Y0063625
X0086675
X0088675
X0088275Y0058125
X0086275
X0084275
X0082275
X0079575
Y0059125
Y0060025
X0081875Y0061925
X0079475Y0065525
X0081375Y0068225
X0083875Y0068425
X0083475Y0072125
Y0073625
X0083775Y0074425
X0084375Y0076125
X0083675Y0076725
X0084175Y0078325
X0088075Y0075325
X0090575
X0091675Y0079125
X0090275Y0058125
X0091075Y0054125
X0089075
X0087075Y0053925
X0083775Y0055125
X0082275
X0080775
X0082275Y0053625
X0077675Y0054225
X0076675Y0055325
X0076375Y0052225
X0077775Y0063025
X0076875Y0067925
Y0068725
Y0069525
X0076975Y0074325
X0078075Y0075025
X0076505Y0078055
X0077775Y0079925
X0077475Y0081625
Y0082625
X0078575Y0085425
X0076375Y0089225
Y0092225
Y0095225
Y0098225
X0084375
X0083375Y0095225
X0086375
X0089375
X0092375
X0089375Y0091225
X0089975Y0087325
X0092375Y0088225
X0085575Y0089825
X0082075Y0090825
X0083695Y0081305
X0084175Y0080325
X00824036Y0079525
X0088375Y0083125
X0089975Y0081525
X0107225Y0081625
Y0082625
X0107525Y0079925
X01121536Y0079525
X0113925Y0080325
X0113445Y0081305
X0118125Y0083125
X0115325Y0089825
X0111825Y0090825
X0113125Y0095225
X0116125
X0114125Y0098225
X0106125
Y0095225
Y0092225
Y0089225
X0108325Y0085425
X0119725Y0087325
X0122125Y0088225
X0119125Y0091225
Y0095225
X0122125
X0119725Y0081525
T02
X0089274Y0072243
Y0073513
X0105151Y0072964
Y0074234
Y0075504
Y0076774
Y0078044
Y0079314
Y0071694
Y0070424
X0119024Y0072243
Y0073513
X0075401Y0072964
Y0074234
Y0075504
Y0076774
Y0078044
Y0079314
Y0071694
Y0070424
Y0080584
Y0081854
Y0083124
Y0084394
Y0085664
Y0086934
X0105151
Y0085664
Y0084394
Y0083124
Y0081854
Y0080584
T03
X0080875Y0052825
X0108625
X0110625
X0078875
T04
X0120125Y0051625
X0122665
X0122658Y0070805
Y0073345
Y0075885
X0092908
Y0073345
Y0070805
X0092915Y0051625
X0090375
X0079238Y0089093
X0081778
X0084318
X0086858
X0089398
X0092908Y0086045
Y0083505
Y0080965
X0108988Y0089093
X0111528
X0114068
X0116608
X0119148
X0122658Y0086045
Y0083505
Y0080965
T05
X0087175Y0092625
X0091675Y0092625
Y0098625
X0087175
X0116925
Y0092625
X0121425Y0092625
Y0098625
M30
