%FSTAX44Y44*%
%MOMM*%
%SFA1B1*%

%IPPOS*%
%ADD60R,1.099998X1.099998*%
%ADD62C,1.599997*%
%ADD63R,1.599997X1.599997*%
%ADD64R,1.599997X1.599997*%
%ADD65C,1.099998*%
%ADD66C,1.449997*%
%ADD67R,1.449997X1.449997*%
%LNuopioid_-_rev.b0_-_panel-1*%
%LPD*%
G54D60*
X00892739Y00735129D03*
X00754009Y00869339D03*
X01190239Y00735129D03*
X01051509Y00869339D03*
G54D62*
X00929149Y00516249D03*
X00916749Y00926249D03*
Y00986249D03*
X00871749Y00926249D03*
Y00986249D03*
X00929079Y00860449D03*
Y00835049D03*
Y00758849D03*
Y00733449D03*
X00868579Y00890929D03*
X00843179D03*
X00817779D03*
X00792379D03*
X01226649Y00516249D03*
X01214249Y00926249D03*
Y00986249D03*
X01169249Y00926249D03*
Y00986249D03*
X01226579Y00860449D03*
Y00835049D03*
Y00758849D03*
Y00733449D03*
X01166079Y00890929D03*
X01140679D03*
X01115279D03*
X01089879D03*
G54D63*
X00903749Y00516249D03*
X00893979Y00890929D03*
X01201249Y00516249D03*
X01191479Y00890929D03*
G54D64*
X00929079Y00809649D03*
Y00708049D03*
X01226579Y00809649D03*
Y00708049D03*
G54D65*
X00892739Y00722429D03*
X00754009Y00856639D03*
Y00843939D03*
Y00831239D03*
Y00818539D03*
Y00805839D03*
Y00793139D03*
Y00780439D03*
Y00767739D03*
Y00755039D03*
Y00742339D03*
Y00729639D03*
Y00716939D03*
Y00704239D03*
X01190239Y00722429D03*
X01051509Y00856639D03*
Y00843939D03*
Y00831239D03*
Y00818539D03*
Y00805839D03*
Y00793139D03*
Y00780439D03*
Y00767739D03*
Y00755039D03*
Y00742339D03*
Y00729639D03*
Y00716939D03*
Y00704239D03*
G54D66*
X00808749Y00528249D03*
X01106249D03*
G54D67*
X00788749Y00528249D03*
X01086249D03*
M02*