%FSTAX44Y44*%
%MOMM*%
%SFA1B1*%

%IPPOS*%
%ADD21R,0.999998X0.999998*%
%ADD23C,0.899998*%
%ADD24C,0.152400*%
%ADD25C,0.999998*%
%ADD27C,0.253999*%
%ADD35C,1.499997*%
%ADD36R,1.499997X1.499997*%
%ADD37R,1.499997X1.499997*%
%ADD38C,0.999998*%
%ADD39C,1.349997*%
%ADD40R,1.349997X1.349997*%
%ADD41C,0.599999*%
%LNuopioid_-_rev.b0_-_panel-1*%
%LPD*%
G36*
X00778749Y00702249D02*
Y00644249D01*
X00940749*
Y00505249*
X00746749*
Y00545198*
X00747964Y00545567*
X00748406Y00544906*
X00769406Y00523906*
X00771399Y00522575*
X00773749Y00522107*
X00780475*
Y00519975*
X00797023*
Y00536523*
X00780475*
Y00534391*
X00776293*
X00758891Y00551793*
Y00660705*
X00773092Y00674906*
X00774424Y00676899*
X00774891Y00679249*
Y00687249*
Y00695249*
X00774424Y00697599*
X00773157Y00699496*
X00772186Y00702083*
X00772982Y00703073*
X00778749Y00702249*
G37*
G36*
X00940749Y00645899D02*
X00789329D01*
Y00699249*
X00789105Y00700952*
X00788448Y00702539*
X00787402Y00703902*
X00769712Y00721592*
X0076835Y00722638*
X00766762Y00723295*
X00765059Y00723519*
X00758726*
X00758318Y00724722*
X00758662Y00724986*
X00759708Y00726349*
X00760365Y00727936*
X00760589Y00729639*
X00760365Y00731342*
X00759708Y00732929*
X00758662Y00734292*
X00757299Y00735338*
X00755712Y00735995*
X00754009Y00736219*
X00753749Y00736447*
Y00748231*
X00754009Y00748459*
X00755712Y00748683*
X00757299Y0074934*
X00758662Y00750386*
X00759708Y00751749*
X00760365Y00753336*
X00760589Y00755039*
X00760365Y00756742*
X00759708Y00758329*
X00758662Y00759692*
X00757299Y00760738*
X0075726Y00760754*
Y00762024*
X00757299Y0076204*
X00758662Y00763086*
X00759708Y00764449*
X00760365Y00766036*
X00760589Y00767739*
X00760365Y00769442*
X00759968Y00770402*
X00765615Y00776049*
X00766814Y00776288*
X00768311Y00777287*
X00769311Y00778784*
X00769662Y00780549*
X00769311Y00782314*
X00768311Y00783811*
X00766814Y0078481*
X00765049Y00785162*
X00763284Y0078481*
X00761787Y00783811*
X00761231Y00782978*
X00759968Y00783103*
X00759708Y00783729*
X00758662Y00785092*
X00757299Y00786138*
X0075726Y00786154*
Y00787424*
X00757299Y0078744*
X00758662Y00788486*
X00759708Y00789849*
X00760105Y00790808*
X00821925*
X00822548Y00790932*
X00824035Y00790636*
X008258Y00790987*
X00827297Y00791987*
X00828297Y00793484*
X00828648Y00795249*
X00828297Y00797014*
X00827297Y00798511*
X008258Y0079951*
X00824035Y00799862*
X0082227Y0079951*
X00820773Y00798511*
X00819773Y00797014*
X00819466Y0079547*
X00760105*
X00759708Y00796429*
X00758662Y00797792*
X00757299Y00798838*
X0075726Y00798854*
Y00800124*
X00757299Y0080014*
X00758662Y00801186*
X00759708Y00802549*
X00760105Y00803508*
X00774339*
X00775231Y00803686*
X00775987Y00804191*
X00781683Y00809887*
X00782188Y00810643*
X00782366Y00811535*
Y00820963*
X00782188Y00821855*
X00781683Y00822611*
X00779143Y00825151*
X00779362Y00826249*
X00779011Y00828014*
X00778011Y00829511*
X00776514Y0083051*
X00774749Y00830862*
X00772984Y0083051*
X00771487Y00829511*
X00770488Y00828014*
X00770136Y00826249*
X00770488Y00824484*
X00771487Y00822987*
X00772838Y00822085*
X00772469Y0082087*
X00760105*
X00759708Y00821829*
X00758662Y00823192*
X00757299Y00824238*
X0075726Y00824254*
Y00825524*
X00757299Y0082554*
X00758662Y00826586*
X00759708Y00827949*
X00760365Y00829536*
X00760589Y00831239*
X00760365Y00832942*
X00759708Y00834529*
X00758662Y00835892*
X00757299Y00836938*
X0075726Y00836954*
Y00838224*
X00757299Y0083824*
X00758662Y00839286*
X00759708Y00840649*
X00760365Y00842236*
X00760589Y00843939*
X00760365Y00845642*
X00759708Y00847229*
X00758662Y00848592*
X00757299Y00849638*
X0075726Y00849654*
Y00850924*
X00757299Y0085094*
X00758662Y00851986*
X00759708Y00853349*
X00760365Y00854936*
X00760589Y00856639*
X00760365Y00858342*
X00759708Y00859929*
X00758662Y00861292*
X00757299Y00862338*
X00757394Y00862815*
X00760533*
Y0086649*
X00812479*
X008341Y00844869*
Y00816587*
X00833687Y00816311*
X00832688Y00814814*
X00832336Y00813049*
X00832688Y00811284*
X00833687Y00809787*
X00835184Y00808788*
X00836949Y00808436*
X00838714Y00808788*
X00840211Y00809787*
X0084121Y00811284*
X00841562Y00813049*
X0084121Y00814814*
X00840211Y00816311*
X00839798Y00816587*
Y00846049*
X00839581Y00847139*
X00838963Y00848063*
X00815673Y00871353*
X00814749Y00871971*
X00813659Y00872188*
X00760533*
Y00875863*
X00747485*
X00746749Y00876599*
Y00997249*
X00940749*
Y00645899*
G37*
G36*
X01076249Y00702249D02*
Y00644249D01*
X0123825*
Y00505249*
X01044249*
Y00545198*
X01045464Y00545567*
X01045906Y00544906*
X01066906Y00523906*
X01068899Y00522575*
X01071249Y00522107*
X01077976*
Y00519975*
X01094523*
Y00536523*
X01077976*
Y00534391*
X01073793*
X01056391Y00551793*
Y00660705*
X01070592Y00674906*
X01071923Y00676899*
X01072391Y00679249*
Y00687249*
Y00695249*
X01071923Y00697599*
X01070657Y00699496*
X01069686Y00702083*
X01070483Y00703073*
X01076249Y00702249*
G37*
G36*
X0123825Y00645899D02*
X01086829D01*
Y00699249*
X01086605Y00700952*
X01085948Y00702539*
X01084902Y00703902*
X01067212Y00721592*
X01065849Y00722638*
X01064262Y00723295*
X01062559Y00723519*
X01056226*
X01055818Y00724722*
X01056162Y00724986*
X01057208Y00726349*
X01057865Y00727936*
X01058089Y00729639*
X01057865Y00731342*
X01057208Y00732929*
X01056162Y00734292*
X01054799Y00735338*
X01053212Y00735995*
X01051509Y00736219*
X01051249Y00736447*
Y00748231*
X01051509Y00748459*
X01053212Y00748683*
X01054799Y0074934*
X01056162Y00750386*
X01057208Y00751749*
X01057865Y00753336*
X01058089Y00755039*
X01057865Y00756742*
X01057208Y00758329*
X01056162Y00759692*
X01054799Y00760738*
X0105476Y00760754*
Y00762024*
X01054799Y0076204*
X01056162Y00763086*
X01057208Y00764449*
X01057865Y00766036*
X01058089Y00767739*
X01057865Y00769442*
X01057468Y00770402*
X01063115Y00776049*
X01064314Y00776288*
X01065811Y00777287*
X01066811Y00778784*
X01067162Y00780549*
X01066811Y00782314*
X01065811Y00783811*
X01064314Y0078481*
X01062549Y00785162*
X01060784Y0078481*
X01059287Y00783811*
X01058731Y00782978*
X01057467Y00783103*
X01057208Y00783729*
X01056162Y00785092*
X01054799Y00786138*
X0105476Y00786154*
Y00787424*
X01054799Y0078744*
X01056162Y00788486*
X01057208Y00789849*
X01057605Y00790808*
X01119425*
X01120048Y00790932*
X01121535Y00790636*
X011233Y00790987*
X01124797Y00791987*
X01125797Y00793484*
X01126148Y00795249*
X01125797Y00797014*
X01124797Y00798511*
X011233Y0079951*
X01121535Y00799862*
X0111977Y0079951*
X01118273Y00798511*
X01117273Y00797014*
X01116966Y0079547*
X01057605*
X01057208Y00796429*
X01056162Y00797792*
X01054799Y00798838*
X0105476Y00798854*
Y00800124*
X01054799Y0080014*
X01056162Y00801186*
X01057208Y00802549*
X01057605Y00803508*
X01071839*
X01072731Y00803686*
X01073487Y00804191*
X01079183Y00809887*
X01079688Y00810643*
X01079866Y00811535*
Y00820963*
X01079688Y00821855*
X01079183Y00822611*
X01076643Y00825151*
X01076862Y00826249*
X01076511Y00828014*
X01075511Y00829511*
X01074014Y0083051*
X01072249Y00830862*
X01070484Y0083051*
X01068987Y00829511*
X01067988Y00828014*
X01067636Y00826249*
X01067988Y00824484*
X01068987Y00822987*
X01070338Y00822085*
X01069969Y0082087*
X01057605*
X01057208Y00821829*
X01056162Y00823192*
X01054799Y00824238*
X0105476Y00824254*
Y00825524*
X01054799Y0082554*
X01056162Y00826586*
X01057208Y00827949*
X01057865Y00829536*
X01058089Y00831239*
X01057865Y00832942*
X01057208Y00834529*
X01056162Y00835892*
X01054799Y00836938*
X0105476Y00836954*
Y00838224*
X01054799Y0083824*
X01056162Y00839286*
X01057208Y00840649*
X01057865Y00842236*
X01058089Y00843939*
X01057865Y00845642*
X01057208Y00847229*
X01056162Y00848592*
X01054799Y00849638*
X0105476Y00849654*
Y00850924*
X01054799Y0085094*
X01056162Y00851986*
X01057208Y00853349*
X01057865Y00854936*
X01058089Y00856639*
X01057865Y00858342*
X01057208Y00859929*
X01056162Y00861292*
X01054799Y00862338*
X01054894Y00862815*
X01058033*
Y0086649*
X0110998*
X011316Y00844869*
Y00816587*
X01131187Y00816311*
X01130188Y00814814*
X01129836Y00813049*
X01130188Y00811284*
X01131187Y00809787*
X01132684Y00808788*
X01134449Y00808436*
X01136214Y00808788*
X01137711Y00809787*
X0113871Y00811284*
X01139063Y00813049*
X0113871Y00814814*
X01137711Y00816311*
X01137298Y00816587*
Y00846049*
X01137081Y00847139*
X01136463Y00848063*
X01113173Y00871353*
X01112249Y00871971*
X01111159Y00872188*
X01058033*
Y00875863*
X01044985*
X01044249Y00876599*
Y00997249*
X0123825*
Y00645899*
G37*
%LNuopioid_-_rev.b0_-_panel-2*%
%LPC*%
G36*
X00836749Y00771862D02*
X00834984Y00771511D01*
X00833487Y00770511*
X00832866Y0076958*
X00797749*
X00797005Y00769432*
X00796857Y00769402*
X00796101Y00768897*
X00781847Y00754643*
X00780749Y00754862*
X00778984Y0075451*
X00777487Y00753511*
X00776487Y00752014*
X00776136Y00750249*
X00776487Y00748484*
X00777487Y00746987*
X00778984Y00745987*
X00780749Y00745636*
X00782514Y00745987*
X00784011Y00746987*
X00785011Y00748484*
X00785362Y00750249*
X00785143Y00751347*
X00798714Y00764918*
X00832866*
X00833487Y00763987*
X00834984Y00762988*
X00836749Y00762636*
X00838401Y00762965*
X00838787Y00762579*
X0083926Y00761871*
X00839136Y00761249*
X00839355Y00760151*
X00836101Y00756897*
X00835596Y00756141*
X00835418Y00755249*
Y00748133*
X00834487Y00747511*
X00833487Y00746014*
X00833136Y00744249*
X00833487Y00742484*
X00834487Y00740987*
X00835984Y00739987*
X00837749Y00739636*
X00839514Y00739987*
X00841011Y00740987*
X0084201Y00742484*
X00842362Y00744249*
X0084201Y00746014*
X00841011Y00747511*
X0084008Y00748133*
Y00754284*
X00842651Y00756855*
X00843749Y00756636*
X00845514Y00756988*
X00847011Y00757987*
X0084801Y00759484*
X00848362Y00761249*
X0084801Y00763014*
X00847011Y00764511*
X00845514Y0076551*
X00843749Y00765862*
X00842097Y00765533*
X00841711Y00765919*
X00841238Y00766627*
X00841362Y00767249*
X00841011Y00769014*
X00840011Y00770511*
X00838514Y00771511*
X00836749Y00771862*
G37*
G36*
X00938103Y00818673D02*
X00920055D01*
Y00800625*
X00938103*
Y00818673*
G37*
G36*
X00899263Y00741653D02*
X00886215D01*
Y00728605*
X00899263*
Y00741653*
G37*
G36*
X00912773Y00525273D02*
X00894725D01*
Y00507225*
X00912773*
Y00525273*
G37*
G36*
X00938103Y00717073D02*
X00920055D01*
Y00699025*
X00938103*
Y00717073*
G37*
G36*
X00929079Y00742551D02*
X00926723Y00742241D01*
X00924528Y00741331*
X00922643Y00739885*
X00921197Y00738*
X00920287Y00735805*
X00919977Y00733449*
X00920287Y00731093*
X00921197Y00728898*
X00922643Y00727013*
X00924528Y00725567*
X00926723Y00724657*
X00929079Y00724347*
X00931435Y00724657*
X0093363Y00725567*
X00935515Y00727013*
X00936961Y00728898*
X00937871Y00731093*
X00938181Y00733449*
X00937871Y00735805*
X00936961Y00738*
X00935515Y00739885*
X0093363Y00741331*
X00931435Y00742241*
X00929079Y00742551*
G37*
G36*
X00871749Y00935351D02*
X00869393Y00935041D01*
X00867198Y00934131*
X00865313Y00932685*
X00863867Y009308*
X00862957Y00928605*
X00862647Y00926249*
X00862957Y00923893*
X00863867Y00921698*
X00865313Y00919813*
X00867198Y00918367*
X00869393Y00917457*
X00871749Y00917147*
X00874105Y00917457*
X008763Y00918367*
X00878185Y00919813*
X00879631Y00921698*
X00880541Y00923893*
X00880851Y00926249*
X00880541Y00928605*
X00879631Y009308*
X00878185Y00932685*
X008763Y00934131*
X00874105Y00935041*
X00871749Y00935351*
G37*
G36*
X00881659Y0090558D02*
X00860749D01*
X00859857Y00905402*
X00859101Y00904897*
X00856847Y00902643*
X00855749Y00902862*
X00853984Y00902511*
X00852487Y00901511*
X00851487Y00900014*
X00851136Y00898249*
X00851487Y00896484*
X00852487Y00894987*
X00853984Y00893987*
X00855749Y00893636*
X00857514Y00893987*
X00859011Y00894987*
X0085931Y00895436*
X0086043Y00894837*
X00859787Y00893285*
X00859477Y00890929*
X00859787Y00888573*
X00860697Y00886378*
X00862143Y00884493*
X00864028Y00883047*
X00866223Y00882137*
X00868579Y00881827*
X00870935Y00882137*
X0087313Y00883047*
X00875015Y00884493*
X00876461Y00886378*
X00877371Y00888573*
X00877681Y00890929*
X00877371Y00893285*
X00876461Y0089548*
X00875015Y00897365*
X0087313Y00898811*
X00871051Y00899673*
X00871299Y00900918*
X00880694*
X00884955Y00896657*
Y00881905*
X00903003*
Y00899953*
X00888251*
X00883307Y00904897*
X00882551Y00905402*
X00881659Y0090558*
G37*
G36*
X00916749Y00995351D02*
X00914393Y00995041D01*
X00912198Y00994132*
X00910313Y00992685*
X00908867Y009908*
X00907957Y00988605*
X00907647Y00986249*
X00907957Y00983893*
X00908867Y00981698*
X00910313Y00979813*
X00912198Y00978367*
X00914393Y00977457*
X00916749Y00977147*
X00919105Y00977457*
X009213Y00978367*
X00923185Y00979813*
X00924631Y00981698*
X00925541Y00983893*
X00925851Y00986249*
X00925541Y00988605*
X00924631Y009908*
X00923185Y00992685*
X009213Y00994132*
X00919105Y00995041*
X00916749Y00995351*
G37*
G36*
X00871749D02*
X00869393Y00995041D01*
X00867198Y00994132*
X00865313Y00992685*
X00863867Y009908*
X00862957Y00988605*
X00862647Y00986249*
X00862957Y00983893*
X00863867Y00981698*
X00865313Y00979813*
X00867198Y00978367*
X00869393Y00977457*
X00871749Y00977147*
X00874105Y00977457*
X008763Y00978367*
X00878185Y00979813*
X00879631Y00981698*
X00880541Y00983893*
X00880851Y00986249*
X00880541Y00988605*
X00879631Y009908*
X00878185Y00992685*
X008763Y00994132*
X00874105Y00995041*
X00871749Y00995351*
G37*
G36*
X00929079Y00869551D02*
X00926723Y00869241D01*
X00924528Y00868332*
X00922643Y00866885*
X00921197Y00865*
X00920287Y00862805*
X00919977Y00860449*
X00920287Y00858093*
X00921197Y00855898*
X00922643Y00854013*
X00924528Y00852567*
X00926723Y00851657*
X00929079Y00851347*
X00931435Y00851657*
X0093363Y00852567*
X00935515Y00854013*
X00936961Y00855898*
X00937871Y00858093*
X00938181Y00860449*
X00937871Y00862805*
X00936961Y00865*
X00935515Y00866885*
X0093363Y00868332*
X00931435Y00869241*
X00929079Y00869551*
G37*
G36*
Y00844151D02*
X00926723Y00843841D01*
X00924528Y00842932*
X00922643Y00841485*
X00921197Y008396*
X00920287Y00837405*
X00919977Y00835049*
X00920287Y00832693*
X00921197Y00830498*
X00922643Y00828613*
X00924528Y00827167*
X00926723Y00826257*
X00929079Y00825947*
X00931435Y00826257*
X0093363Y00827167*
X00935515Y00828613*
X00936961Y00830498*
X00937871Y00832693*
X00938181Y00835049*
X00937871Y00837405*
X00936961Y008396*
X00935515Y00841485*
X0093363Y00842932*
X00931435Y00843841*
X00929079Y00844151*
G37*
G36*
X00817779Y00900031D02*
X00815423Y00899721D01*
X00813228Y00898811*
X00811343Y00897365*
X00809897Y0089548*
X00808987Y00893285*
X00808677Y00890929*
X00808987Y00888573*
X00809897Y00886378*
X00811343Y00884493*
X00813228Y00883047*
X00815423Y00882137*
X00817779Y00881827*
X00820135Y00882137*
X0082233Y00883047*
X00824215Y00884493*
X00825661Y00886378*
X00826571Y00888573*
X00826881Y00890929*
X00826571Y00893285*
X00825661Y0089548*
X00824215Y00897365*
X0082233Y00898811*
X00820135Y00899721*
X00817779Y00900031*
G37*
G36*
X00792379D02*
X00790023Y00899721D01*
X00787828Y00898811*
X00785943Y00897365*
X00784497Y0089548*
X00783587Y00893285*
X00783277Y00890929*
X00783587Y00888573*
X00784497Y00886378*
X00785943Y00884493*
X00787828Y00883047*
X00790023Y00882137*
X00792379Y00881827*
X00794735Y00882137*
X0079693Y00883047*
X00798815Y00884493*
X00800261Y00886378*
X00801171Y00888573*
X00801481Y00890929*
X00801171Y00893285*
X00800261Y0089548*
X00798815Y00897365*
X0079693Y00898811*
X00794735Y00899721*
X00792379Y00900031*
G37*
G36*
X01134249Y00771862D02*
X01132484Y00771511D01*
X01130987Y00770511*
X01130365Y0076958*
X01095249*
X01094505Y00769432*
X01094357Y00769402*
X01093601Y00768897*
X01079347Y00754643*
X01078249Y00754862*
X01076484Y0075451*
X01074987Y00753511*
X01073987Y00752014*
X01073636Y00750249*
X01073987Y00748484*
X01074987Y00746987*
X01076484Y00745987*
X01078249Y00745636*
X01080014Y00745987*
X01081511Y00746987*
X01082511Y00748484*
X01082862Y00750249*
X01082643Y00751347*
X01096214Y00764918*
X01130365*
X01130987Y00763987*
X01132484Y00762988*
X01134249Y00762636*
X01135901Y00762965*
X01136287Y00762579*
X0113676Y00761871*
X01136636Y00761249*
X01136855Y00760151*
X01133602Y00756897*
X01133096Y00756141*
X01132918Y00755249*
Y00748133*
X01131987Y00747511*
X01130987Y00746014*
X01130636Y00744249*
X01130987Y00742484*
X01131987Y00740987*
X01133484Y00739987*
X01135249Y00739636*
X01137014Y00739987*
X01138511Y00740987*
X0113951Y00742484*
X01139862Y00744249*
X0113951Y00746014*
X01138511Y00747511*
X0113758Y00748133*
Y00754284*
X01140151Y00756855*
X01141249Y00756636*
X01143014Y00756988*
X01144511Y00757987*
X0114551Y00759484*
X01145862Y00761249*
X0114551Y00763014*
X01144511Y00764511*
X01143014Y0076551*
X01141249Y00765862*
X01139597Y00765533*
X01139211Y00765919*
X01138738Y00766627*
X01138862Y00767249*
X01138511Y00769014*
X01137511Y00770511*
X01136015Y00771511*
X01134249Y00771862*
G37*
G36*
X01235603Y00818673D02*
X01217555D01*
Y00800625*
X01235603*
Y00818673*
G37*
G36*
X01196763Y00741653D02*
X01183715D01*
Y00728605*
X01196763*
Y00741653*
G37*
G36*
X01210273Y00525273D02*
X01192225D01*
Y00507225*
X01210273*
Y00525273*
G37*
G36*
X01235603Y00717073D02*
X01217555D01*
Y00699025*
X01235603*
Y00717073*
G37*
G36*
X01226579Y00742551D02*
X01224223Y00742241D01*
X01222028Y00741331*
X01220143Y00739885*
X01218697Y00738*
X01217787Y00735805*
X01217477Y00733449*
X01217787Y00731093*
X01218697Y00728898*
X01220143Y00727013*
X01222028Y00725567*
X01224223Y00724657*
X01226579Y00724347*
X01228935Y00724657*
X0123113Y00725567*
X01233015Y00727013*
X01234461Y00728898*
X01235371Y00731093*
X01235681Y00733449*
X01235371Y00735805*
X01234461Y00738*
X01233015Y00739885*
X0123113Y00741331*
X01228935Y00742241*
X01226579Y00742551*
G37*
G36*
X01169249Y00935351D02*
X01166893Y00935041D01*
X01164698Y00934131*
X01162813Y00932685*
X01161367Y009308*
X01160457Y00928605*
X01160147Y00926249*
X01160457Y00923893*
X01161367Y00921698*
X01162813Y00919813*
X01164698Y00918367*
X01166893Y00917457*
X01169249Y00917147*
X01171605Y00917457*
X011738Y00918367*
X01175685Y00919813*
X01177131Y00921698*
X01178041Y00923893*
X01178351Y00926249*
X01178041Y00928605*
X01177131Y009308*
X01175685Y00932685*
X011738Y00934131*
X01171605Y00935041*
X01169249Y00935351*
G37*
G36*
X01179159Y0090558D02*
X01158249D01*
X01157357Y00905402*
X01156601Y00904897*
X01154347Y00902643*
X01153249Y00902862*
X01151484Y00902511*
X01149987Y00901511*
X01148987Y00900014*
X01148636Y00898249*
X01148987Y00896484*
X01149987Y00894987*
X01151484Y00893987*
X01153249Y00893636*
X01155014Y00893987*
X01156511Y00894987*
X0115681Y00895436*
X0115793Y00894837*
X01157287Y00893285*
X01156977Y00890929*
X01157287Y00888573*
X01158197Y00886378*
X01159643Y00884493*
X01161528Y00883047*
X01163723Y00882137*
X01166079Y00881827*
X01168435Y00882137*
X0117063Y00883047*
X01172515Y00884493*
X01173961Y00886378*
X01174871Y00888573*
X01175181Y00890929*
X01174871Y00893285*
X01173961Y0089548*
X01172515Y00897365*
X0117063Y00898811*
X01168551Y00899673*
X01168799Y00900918*
X01178194*
X01182455Y00896657*
Y00881905*
X01200503*
Y00899953*
X01185751*
X01180807Y00904897*
X01180051Y00905402*
X01179159Y0090558*
G37*
G36*
X01214249Y00995351D02*
X01211893Y00995041D01*
X01209698Y00994132*
X01207813Y00992685*
X01206367Y009908*
X01205457Y00988605*
X01205147Y00986249*
X01205457Y00983893*
X01206367Y00981698*
X01207813Y00979813*
X01209698Y00978367*
X01211893Y00977457*
X01214249Y00977147*
X01216605Y00977457*
X012188Y00978367*
X01220685Y00979813*
X01222131Y00981698*
X01223041Y00983893*
X01223351Y00986249*
X01223041Y00988605*
X01222131Y009908*
X01220685Y00992685*
X012188Y00994132*
X01216605Y00995041*
X01214249Y00995351*
G37*
G36*
X01169249D02*
X01166893Y00995041D01*
X01164698Y00994132*
X01162813Y00992685*
X01161367Y009908*
X01160457Y00988605*
X01160147Y00986249*
X01160457Y00983893*
X01161367Y00981698*
X01162813Y00979813*
X01164698Y00978367*
X01166893Y00977457*
X01169249Y00977147*
X01171605Y00977457*
X011738Y00978367*
X01175685Y00979813*
X01177131Y00981698*
X01178041Y00983893*
X01178351Y00986249*
X01178041Y00988605*
X01177131Y009908*
X01175685Y00992685*
X011738Y00994132*
X01171605Y00995041*
X01169249Y00995351*
G37*
G36*
X01226579Y00869551D02*
X01224223Y00869241D01*
X01222028Y00868332*
X01220143Y00866885*
X01218697Y00865*
X01217787Y00862805*
X01217477Y00860449*
X01217787Y00858093*
X01218697Y00855898*
X01220143Y00854013*
X01222028Y00852567*
X01224223Y00851657*
X01226579Y00851347*
X01228935Y00851657*
X0123113Y00852567*
X01233015Y00854013*
X01234461Y00855898*
X01235371Y00858093*
X01235681Y00860449*
X01235371Y00862805*
X01234461Y00865*
X01233015Y00866885*
X0123113Y00868332*
X01228935Y00869241*
X01226579Y00869551*
G37*
G36*
Y00844151D02*
X01224223Y00843841D01*
X01222028Y00842932*
X01220143Y00841485*
X01218697Y008396*
X01217787Y00837405*
X01217477Y00835049*
X01217787Y00832693*
X01218697Y00830498*
X01220143Y00828613*
X01222028Y00827167*
X01224223Y00826257*
X01226579Y00825947*
X01228935Y00826257*
X0123113Y00827167*
X01233015Y00828613*
X01234461Y00830498*
X01235371Y00832693*
X01235681Y00835049*
X01235371Y00837405*
X01234461Y008396*
X01233015Y00841485*
X0123113Y00842932*
X01228935Y00843841*
X01226579Y00844151*
G37*
G36*
X01115279Y00900031D02*
X01112923Y00899721D01*
X01110728Y00898811*
X01108843Y00897365*
X01107397Y0089548*
X01106487Y00893285*
X01106177Y00890929*
X01106487Y00888573*
X01107397Y00886378*
X01108843Y00884493*
X01110728Y00883047*
X01112923Y00882137*
X01115279Y00881827*
X01117635Y00882137*
X0111983Y00883047*
X01121715Y00884493*
X01123161Y00886378*
X01124071Y00888573*
X01124381Y00890929*
X01124071Y00893285*
X01123161Y0089548*
X01121715Y00897365*
X0111983Y00898811*
X01117635Y00899721*
X01115279Y00900031*
G37*
G36*
X01089879D02*
X01087523Y00899721D01*
X01085328Y00898811*
X01083443Y00897365*
X01081997Y0089548*
X01081087Y00893285*
X01080777Y00890929*
X01081087Y00888573*
X01081997Y00886378*
X01083443Y00884493*
X01085328Y00883047*
X01087523Y00882137*
X01089879Y00881827*
X01092235Y00882137*
X0109443Y00883047*
X01096315Y00884493*
X01097761Y00886378*
X01098671Y00888573*
X01098981Y00890929*
X01098671Y00893285*
X01097761Y0089548*
X01096315Y00897365*
X0109443Y00898811*
X01092235Y00899721*
X01089879Y00900031*
G37*
%LNuopioid_-_rev.b0_-_panel-3*%
%LPD*%
G54D21*
X00892739Y00735129D03*
X00754009Y00869339D03*
X01190239Y00735129D03*
X01051509Y00869339D03*
G54D23*
X00752749Y00663249D02*
X00768749Y00679249D01*
Y00687249*
Y00695249*
X00752749Y00549249D02*
Y00663249D01*
Y00549249D02*
X00773749Y00528249D01*
X00788749*
X01050249Y00663249D02*
X01066249Y00679249D01*
Y00687249*
Y00695249*
X01050249Y00549249D02*
Y00663249D01*
Y00549249D02*
X01071249Y00528249D01*
X01086249*
G54D24*
X00881659Y00903249D02*
X00893979Y00890929D01*
X00860749Y00903249D02*
X00881659D01*
X00855749Y00898249D02*
X00860749Y00903249D01*
X00821925Y00793139D02*
X00824035Y00795249D01*
X00754009Y00793139D02*
X00821925D01*
X00765049Y00778779D02*
Y00780549D01*
X00754009Y00767739D02*
X00765049Y00778779D01*
X00754009Y00818539D02*
X00772749D01*
X00754009Y00805839D02*
X00774339D01*
X00772749Y00818249D02*
Y00818539D01*
X00780035Y00811535D02*
Y00820963D01*
X00774339Y00805839D02*
X00780035Y00811535D01*
X00774749Y00826249D02*
X00780035Y00820963D01*
X00837749Y00744249D02*
Y00755249D01*
X00843749Y00761249*
X00797749Y00767249D02*
X00836749D01*
X00780749Y00750249D02*
X00797749Y00767249D01*
X01179159Y00903249D02*
X01191479Y00890929D01*
X01158249Y00903249D02*
X01179159D01*
X01153249Y00898249D02*
X01158249Y00903249D01*
X01119425Y00793139D02*
X01121535Y00795249D01*
X01051509Y00793139D02*
X01119425D01*
X01062549Y00778779D02*
Y00780549D01*
X01051509Y00767739D02*
X01062549Y00778779D01*
X01051509Y00818539D02*
X01070249D01*
X01051509Y00805839D02*
X01071839D01*
X01070249Y00818249D02*
Y00818539D01*
X01077535Y00811535D02*
Y00820963D01*
X01071839Y00805839D02*
X01077535Y00811535D01*
X01072249Y00826249D02*
X01077535Y00820963D01*
X01135249Y00744249D02*
Y00755249D01*
X01141249Y00761249*
X01095249Y00767249D02*
X01134249D01*
X01078249Y00750249D02*
X01095249Y00767249D01*
G54D25*
X00754009Y00716939D02*
X00765059D01*
X00782749Y00699249*
Y00589249D02*
Y00699249D01*
X01051509Y00716939D02*
X01062559D01*
X01080249Y00699249*
Y00589249D02*
Y00699249D01*
G54D27*
X00836949Y00813049D02*
Y00846049D01*
X00813659Y00869339D02*
X00836949Y00846049D01*
X00754009Y00869339D02*
X00813659D01*
X01134449Y00813049D02*
Y00846049D01*
X01111159Y00869339D02*
X01134449Y00846049D01*
X01051509Y00869339D02*
X01111159D01*
G54D35*
X00929149Y00516249D03*
X00916749Y00926249D03*
Y00986249D03*
X00871749Y00926249D03*
Y00986249D03*
X00929079Y00860449D03*
Y00835049D03*
Y00758849D03*
Y00733449D03*
X00868579Y00890929D03*
X00843179D03*
X00817779D03*
X00792379D03*
X01226649Y00516249D03*
X01214249Y00926249D03*
Y00986249D03*
X01169249Y00926249D03*
Y00986249D03*
X01226579Y00860449D03*
Y00835049D03*
Y00758849D03*
Y00733449D03*
X01166079Y00890929D03*
X01140679D03*
X01115279D03*
X01089879D03*
G54D36*
X00903749Y00516249D03*
X00893979Y00890929D03*
X01201249Y00516249D03*
X01191479Y00890929D03*
G54D37*
X00929079Y00809649D03*
Y00708049D03*
X01226579Y00809649D03*
Y00708049D03*
G54D38*
X00892739Y00722429D03*
X00754009Y00856639D03*
Y00843939D03*
Y00831239D03*
Y00818539D03*
Y00805839D03*
Y00793139D03*
Y00780439D03*
Y00767739D03*
Y00755039D03*
Y00742339D03*
Y00729639D03*
Y00716939D03*
Y00704239D03*
X01190239Y00722429D03*
X01051509Y00856639D03*
Y00843939D03*
Y00831239D03*
Y00818539D03*
Y00805839D03*
Y00793139D03*
Y00780439D03*
Y00767739D03*
Y00755039D03*
Y00742339D03*
Y00729639D03*
Y00716939D03*
Y00704239D03*
G54D39*
X00808749Y00528249D03*
X01106249D03*
G54D40*
X00788749Y00528249D03*
X01086249D03*
G54D41*
X00910749Y00541249D03*
X00890749D03*
X00855749Y00898249D03*
X00824035Y00795249D03*
X00795749Y00591249D03*
Y00581249D03*
Y00600249D03*
X00765049Y00780549D03*
X00774749Y00816249D03*
Y00826249D03*
X00836949Y00813049D03*
X00837749Y00744249D03*
X00843749Y00761249D03*
X00836749Y00767249D03*
X00780749Y00750249D03*
X00768749Y00687249D03*
Y00679249D03*
Y00695249D03*
X00926749Y00612249D03*
Y00592249D03*
Y00572249D03*
Y00552249D03*
X00870749Y00539249D03*
X00807749Y00551249D03*
X00837749D03*
X00822749D03*
Y00536249D03*
X00766749Y00553249D03*
X00776749Y00542249D03*
X00822749Y00581249D03*
X00842749D03*
X00862749D03*
X00882749D03*
X00902749D03*
X00818749Y00619249D03*
X00777749Y00630249D03*
X00926749Y00632249D03*
X00763749Y00522249D03*
X00813749Y00682249D03*
X00891749Y00685249D03*
X00834749Y00721249D03*
Y00736249D03*
X00838749Y00684249D03*
X00916749Y00791249D03*
X00777749Y00799249D03*
X00883749Y00831249D03*
X00916749Y00666249D03*
X00906749Y00656249D03*
X00886749D03*
X00866749D03*
X00846749D03*
X00926749Y00676249D03*
Y00656249D03*
X00769749Y00743249D03*
X00880749Y00753249D03*
X00905749D03*
X00899749Y00815249D03*
X00841749Y00803249D03*
Y00783249D03*
X00820749Y00908249D03*
X00763749Y00982249D03*
Y00952249D03*
Y00922249D03*
Y00892249D03*
X00843749Y00982249D03*
X00923749Y00952249D03*
X00893749D03*
X00863749D03*
X00893749Y00912249D03*
X00923749Y00882249D03*
X00899749Y00873249D03*
X00833749Y00952249D03*
X00785749Y00854249D03*
X00794749Y00655249D03*
X00906749Y00636249D03*
X00886749D03*
X00866749D03*
X00846749D03*
X01208249Y00541249D03*
X01188249D03*
X01153249Y00898249D03*
X01121535Y00795249D03*
X01093249Y00591249D03*
Y00581249D03*
Y00600249D03*
X01062549Y00780549D03*
X01072249Y00816249D03*
Y00826249D03*
X01134449Y00813049D03*
X01135249Y00744249D03*
X01141249Y00761249D03*
X01134249Y00767249D03*
X01078249Y00750249D03*
X01066249Y00687249D03*
Y00679249D03*
Y00695249D03*
X01224249Y00612249D03*
Y00592249D03*
Y00572249D03*
Y00552249D03*
X01168249Y00539249D03*
X01105249Y00551249D03*
X01135249D03*
X01120249D03*
Y00536249D03*
X01064249Y00553249D03*
X01074249Y00542249D03*
X01120249Y00581249D03*
X01140249D03*
X01160249D03*
X01180249D03*
X01200249D03*
X01116249Y00619249D03*
X01075249Y00630249D03*
X01224249Y00632249D03*
X01061249Y00522249D03*
X0111125Y00682249D03*
X01189249Y00685249D03*
X01132249Y00721249D03*
Y00736249D03*
X01136249Y00684249D03*
X01214249Y00791249D03*
X01075249Y00799249D03*
X01181249Y00831249D03*
X01214249Y00666249D03*
X01204249Y00656249D03*
X01184249D03*
X01164249D03*
X01144249D03*
X01224249Y00676249D03*
Y00656249D03*
X01067249Y00743249D03*
X01178249Y00753249D03*
X01203249D03*
X01197249Y00815249D03*
X01139249Y00803249D03*
Y00783249D03*
X01118249Y00908249D03*
X01061249Y00982249D03*
Y00952249D03*
Y00922249D03*
Y00892249D03*
X01141249Y00982249D03*
X01221249Y00952249D03*
X01191249D03*
X01161249D03*
X01191249Y00912249D03*
X01221249Y00882249D03*
X01197249Y00873249D03*
X01131249Y00952249D03*
X01083249Y00854249D03*
X01092249Y00655249D03*
X01204249Y00636249D03*
X01184249D03*
X01164249D03*
X01144249D03*
M02*