%FSTAX44Y44*%
%MOMM*%
%SFA1B1*%

%IPPOS*%
%AMD14*
4,1,8,2.849880,-0.718820,2.849880,0.718820,2.771140,0.800100,-2.771140,0.800100,-2.849880,0.718820,-2.849880,-0.718820,-2.771140,-0.800100,2.771140,-0.800100,2.849880,-0.718820,0.0*
1,1,0.160000,2.771140,-0.718820*
1,1,0.160000,2.771140,0.718820*
1,1,0.160000,-2.771140,0.718820*
1,1,0.160000,-2.771140,-0.718820*
%
%AMD15*
4,1,8,0.840740,-0.594360,0.840740,0.594360,0.774700,0.660400,-0.774700,0.660400,-0.840740,0.594360,-0.840740,-0.594360,-0.774700,-0.660400,0.774700,-0.660400,0.840740,-0.594360,0.0*
1,1,0.132000,0.774700,-0.594360*
1,1,0.132000,0.774700,0.594360*
1,1,0.132000,-0.774700,0.594360*
1,1,0.132000,-0.774700,-0.594360*
%
%AMD16*
4,1,8,0.398780,-0.360680,0.398780,0.360680,0.360680,0.398780,-0.360680,0.398780,-0.398780,0.360680,-0.398780,-0.360680,-0.360680,-0.398780,0.360680,-0.398780,0.398780,-0.360680,0.0*
1,1,0.080000,0.360680,-0.360680*
1,1,0.080000,0.360680,0.360680*
1,1,0.080000,-0.360680,0.360680*
1,1,0.080000,-0.360680,-0.360680*
%
%AMD20*
4,1,8,0.723900,-0.180340,0.723900,0.180340,0.680720,0.226060,-0.680720,0.226060,-0.723900,0.180340,-0.723900,-0.180340,-0.680720,-0.226060,0.680720,-0.226060,0.723900,-0.180340,0.0*
1,1,0.090000,0.680720,-0.180340*
1,1,0.090000,0.680720,0.180340*
1,1,0.090000,-0.680720,0.180340*
1,1,0.090000,-0.680720,-0.180340*
%
%AMD22*
4,1,8,-0.500380,0.403860,-0.500380,-0.403860,-0.454660,-0.449580,0.454660,-0.449580,0.500380,-0.403860,0.500380,0.403860,0.454660,0.449580,-0.454660,0.449580,-0.500380,0.403860,0.0*
1,1,0.090000,-0.454660,0.403860*
1,1,0.090000,-0.454660,-0.403860*
1,1,0.090000,0.454660,-0.403860*
1,1,0.090000,0.454660,0.403860*
%
%ADD10R,0.999998X0.899998*%
%ADD11R,0.999998X0.999998*%
%ADD12R,1.299997X1.499997*%
%ADD13O,2.099996X0.449999*%
G04~CAMADD=14~8~0.0~0.0~629.9~2244.1~31.5~0.0~15~0.0~0.0~0.0~0.0~0~0.0~0.0~0.0~0.0~0~0.0~0.0~0.0~270.0~2244.0~630.0*
%ADD14D14*%
G04~CAMADD=15~8~0.0~0.0~519.7~661.4~26.0~0.0~15~0.0~0.0~0.0~0.0~0~0.0~0.0~0.0~0.0~0~0.0~0.0~0.0~270.0~662.0~520.0*
%ADD15D15*%
G04~CAMADD=16~8~0.0~0.0~315.0~315.0~15.7~0.0~15~0.0~0.0~0.0~0.0~0~0.0~0.0~0.0~0.0~0~0.0~0.0~0.0~270.0~314.0~314.0*
%ADD16D16*%
%ADD17R,0.799998X1.049998*%
%ADD18R,1.099998X0.649999*%
%ADD19R,0.899998X0.999998*%
G04~CAMADD=20~8~0.0~0.0~177.2~570.9~17.7~0.0~15~0.0~0.0~0.0~0.0~0~0.0~0.0~0.0~0.0~0~0.0~0.0~0.0~270.0~572.0~178.0*
%ADD20D20*%
%ADD21R,0.999998X0.999998*%
G04~CAMADD=22~8~0.0~0.0~354.3~393.7~17.7~0.0~15~0.0~0.0~0.0~0.0~0~0.0~0.0~0.0~0.0~0~0.0~0.0~0.0~90.0~394.0~355.0*
%ADD22D22*%
%ADD23C,0.899998*%
%ADD24C,0.152400*%
%ADD25C,0.999998*%
%ADD26C,0.399999*%
%ADD27C,0.253999*%
%ADD28C,0.499999*%
%ADD29C,0.799998*%
%ADD30C,0.599999*%
%ADD31C,0.299999*%
%ADD32C,0.699999*%
%ADD33R,3.399993X0.599999*%
%ADD34R,1.799996X0.899998*%
%ADD35C,1.499997*%
%ADD36R,1.499997X1.499997*%
%ADD37R,1.499997X1.499997*%
%ADD38C,0.999998*%
%ADD39C,1.349997*%
%ADD40R,1.349997X1.349997*%
%ADD41C,0.599999*%
%LNuopioid_-_rev.b0_-_panel-1*%
%LPD*%
G36*
X00781844Y00762836D02*
X00781634Y00762522D01*
X00781341Y00761049*
X00781634Y00759576*
X00782468Y00758328*
X00783717Y00757494*
X00785189Y00757201*
X00791108*
Y00742773*
X00786225*
Y00733521*
X00784205Y00731501*
X00783032Y00731987*
Y00746333*
X00784011Y00746987*
X00785011Y00748484*
X00785362Y00750249*
X00785011Y00752014*
X00784011Y00753511*
X00782514Y0075451*
X00780749Y00754862*
X00778984Y0075451*
X00777487Y00753511*
X00776487Y00752014*
X00776136Y00750249*
X00776487Y00748484*
X00777487Y00746987*
X0077837Y00746397*
Y00706297*
X00778548Y00705405*
X00779053Y00704649*
X00790151Y00693551*
X00790907Y00693046*
X00791055Y00693016*
X00791799Y00692868*
X00792331*
X0079293Y00691748*
X00792609Y00691269*
X00792456Y00690499*
Y00686899*
X00792609Y00686129*
X00793046Y00685476*
X00793699Y0068504*
X00794469Y00684886*
X00808069*
X00808839Y0068504*
X00809492Y00685476*
X00809929Y00686129*
X00810082Y00686899*
Y00690499*
X00809929Y00691269*
X00809492Y00691922*
Y00691976*
X00809929Y00692629*
X00810082Y00693399*
Y00696999*
X00809929Y00697769*
X00809492Y00698422*
Y00698476*
X00809929Y00699129*
X00810082Y00699899*
Y00700951*
X00811255Y00701437*
X00818169Y00694523*
Y00661273*
X00813725*
Y00647725*
X00813332Y00647332*
X00811773*
Y00647725*
Y0064823*
Y00661273*
X00800725*
Y0064823*
Y00647725*
X00800332Y00647332*
X00787273*
Y00654773*
X00775225*
Y00645085*
X00771446Y00641307*
X00770273Y00641793*
Y00654773*
X00769695*
X00769327Y00655988*
X00769736Y00656262*
X00770161Y00656898*
X00770311Y00657649*
Y00664849*
X00770161Y006656*
X00769736Y00666236*
X007691Y00666661*
X0076835Y00666811*
X00761149*
X00760398Y00666661*
X00759329Y00668261*
Y00669829*
X00764406Y00674906*
X00766399Y00673575*
X00768749Y00673107*
X00771099Y00673575*
X00773092Y00674906*
X00774424Y00676899*
X00774891Y00679249*
Y00687249*
Y00695249*
Y00722249*
X00774424Y007246*
X00773092Y00726592*
X00765702Y00733982*
X00763709Y00735313*
X00761359Y00735781*
X00756229*
X00755712Y00735995*
X00754009Y00736219*
X00753773Y0073801*
X00753917Y00748379*
X00754009Y00748459*
X00755712Y00748683*
X00757299Y0074934*
X00758662Y00750386*
X00759475Y00751446*
X00762959*
X00764334Y0075172*
X007655Y00752498*
X00776957Y00763956*
X00781245*
X00781844Y00762836*
G37*
G36*
X00940749Y00785293D02*
Y00706724D01*
X00939576Y00706238*
X00938103Y00707711*
Y00717073*
X00923668*
X00923182Y00718246*
X00929314Y00724378*
X00931435Y00724657*
X0093363Y00725567*
X00935515Y00727013*
X00936961Y00728898*
X00937871Y00731093*
X00938181Y00733449*
X00937871Y00735805*
X00936961Y00738*
X00935515Y00739885*
X0093363Y00741331*
X00931435Y00742241*
X00929079Y00742551*
X00926723Y00742241*
X00924528Y00741331*
X00922643Y00739885*
X00921197Y00738*
X00920287Y00735805*
X00920008Y00733684*
X00905096Y00718772*
X0090405Y00717409*
X00903393Y00715822*
X00903169Y00714119*
Y00704842*
X00885273*
Y00707773*
X00882342*
Y00714749*
X00882068Y00716124*
X0088129Y0071729*
X00880273Y00718306*
Y00725773*
X00867225*
Y00723342*
X00865273*
Y00725773*
X00852729*
X00852242Y00726946*
X00856021Y00730725*
X00865273*
Y00742773*
X00856021*
X00843485Y00755309*
X00843749Y00756636*
X00845514Y00756988*
X00847011Y00757987*
X00847499Y00758718*
X00851207*
X00851468Y00758328*
X00852716Y00757494*
X00854189Y00757201*
X00870689*
X00872162Y00757494*
X0087341Y00758328*
X00874244Y00759576*
X00874537Y00761049*
X00874244Y00762522*
X0087341Y0076377*
Y00764828*
X00873671Y00765218*
X00890658*
Y00741653*
X00886215*
Y00740342*
X00880273*
Y00742773*
X00867225*
Y00730725*
X00880273*
Y00733156*
X00886215*
Y00728605*
X00899263*
Y00741653*
X0089532*
Y00765218*
X00918049*
X00918941Y00765396*
X00919697Y00765901*
X00939576Y00785779*
X00940749Y00785293*
G37*
G36*
X0082699Y00790436D02*
Y00780786D01*
X00826101Y00779897*
X00825596Y00779141*
X00825418Y00778249*
Y00763438*
X00825596Y00762547*
X00826101Y0076179*
X00837865Y00750027*
X00837496Y00748811*
X00835984Y00748511*
X00834487Y00747511*
X00833487Y00746014*
X00833136Y00744249*
X00833487Y00742484*
X00834487Y00740987*
X00835984Y00739987*
X00837749Y00739636*
X00838341Y00739754*
X00839322Y00738948*
Y00692345*
X008395Y00691453*
X00840005Y00690697*
X00850151Y00680551*
X00850907Y00680046*
X00851552Y00679917*
X00851609Y00679629*
X00852046Y00678976*
X00852699Y0067854*
X00853469Y00678386*
X00867069*
X00867839Y0067854*
X00868492Y00678976*
X00868929Y00679629*
X00869082Y00680399*
Y00683999*
X00868929Y00684769*
X00868492Y00685422*
Y00685476*
X00868929Y00686129*
X00869082Y00686899*
Y00690499*
X00868929Y00691269*
X00868492Y00691922*
Y00691976*
X00868929Y00692629*
X00869082Y00693399*
Y00696999*
X00868929Y00697769*
X00869108Y00698106*
X00872225*
Y00694725*
X00885273*
Y00697656*
X00903169*
Y00686975*
X00893023Y00676829*
X00831329*
Y00697249*
X00831105Y00698952*
X00830448Y00700539*
X00829402Y00701902*
X00815089Y00716215*
Y00720749*
Y00735989*
Y00744283*
X00821402Y00750596*
X00822448Y00751959*
X00823105Y00753546*
X00823329Y00755249*
Y00783249*
X00823105Y00784952*
X00822448Y00786539*
X00821402Y00787902*
X00821091Y00788213*
Y00790428*
X00822211Y00791027*
X0082227Y00790987*
X00824035Y00790636*
X008258Y00790987*
X0082587Y00791034*
X0082699Y00790436*
G37*
G36*
X00920055Y00699025D02*
D01*
X00929417*
X00930857Y00697585*
Y00646249*
X00831329*
Y00663669*
X00895749*
X00897452Y00663893*
X00899039Y0066455*
X00900402Y00665596*
X00914402Y00679596*
X00915448Y00680959*
X00916105Y00682546*
X00916131Y00682744*
X00916329Y00684249*
Y00699263*
X00919797Y00699282*
X00920055Y00699025*
G37*
G36*
X00938749Y00532904D02*
Y00506249D01*
X00912773*
Y00507225*
Y00524107*
X00925749*
X00928099Y00524575*
X00930092Y00525907*
X00937576Y0053339*
X00938749Y00532904*
G37*
G36*
X00930857Y00544043D02*
X00923205Y00536391D01*
X00883749*
X00881399Y00535923*
X00879677Y00534773*
X00875225*
Y00532818*
X00874887Y00532592*
X00859686Y00517391*
X00808293*
X00797023Y00528661*
Y00536523*
X00796891*
Y00557725*
X00798273*
Y00564634*
X00810614Y00576975*
X00814773*
Y00586475*
Y00595669*
X00821782*
Y00595309*
X00821952Y00594457*
X00822434Y00593734*
X00823157Y00593252*
X00824009Y00593082*
X00839489*
X00840341Y00593252*
X00841064Y00593734*
X00841546Y00594457*
X00841716Y00595309*
Y00595669*
X00848679*
Y00595049*
X0084886Y00594142*
X00849373Y00593373*
X00850142Y0059286*
X00851049Y0059268*
X00906449*
X00907356Y0059286*
X0090805Y00593323*
X00908807Y00592918*
X00909169Y00592676*
Y00565975*
X00907641Y00564447*
X00907356Y00564638*
X00906449Y00564818*
X00851049*
X00850142Y00564638*
X00849373Y00564125*
X0084886Y00563356*
X00848679Y00562449*
Y00554831*
X00848669Y00554749*
Y00544273*
X00847225*
Y00526225*
X00863273*
Y00544273*
X00861829*
Y0054568*
X00906449*
X00907356Y0054586*
X00908125Y00546374*
X00908638Y00547142*
X00908819Y00548049*
Y0054881*
X00909452Y00548894*
X00911039Y0054955*
X00912402Y00550596*
X00920402Y00558596*
X00921448Y00559959*
X00922105Y00561546*
X00922329Y00563249*
Y00613249*
X00922105Y00614952*
X00921448Y00616539*
X00920402Y00617902*
X00912402Y00625902*
X00911039Y00626948*
X00909452Y00627605*
X00907749Y00627829*
X00839475*
X00831329Y00635975*
Y00644249*
X00930857*
Y00544043*
G37*
G36*
X00807225Y00640773D02*
D01*
Y00638102*
X00794499*
X00792929Y00637789*
X00791598Y006369*
X00784848Y0063015*
X00783959Y00628819*
X00783646Y00627249*
Y00625773*
X00781225*
Y00618527*
X00780848Y0061815*
X00779958Y00616819*
X00779646Y00615249*
Y00605523*
X00776725*
Y00595975*
X00790773*
Y00605523*
X00787852*
Y00612725*
X00794273*
Y00625773*
X00793735*
X00793249Y00626946*
X00796198Y00629896*
X00807225*
Y00627225*
X00818273*
Y00628996*
X00819476Y00629405*
X00820096Y00628596*
X00832096Y00616596*
X00833459Y0061555*
X00834116Y00615278*
X00835046Y00614893*
X00836749Y00614669*
X00905023*
X00906685Y00613007*
X00906449Y00611818*
X00851049*
X00850142Y00611638*
X00849373Y00611124*
X0084886Y00610356*
X00848679Y00609449*
Y00608829*
X00840965*
X00840341Y00609246*
X00839489Y00609416*
X00824009*
X00823157Y00609246*
X00822533Y00608829*
X00811852*
Y00615249*
X0081154Y00616819*
X0081065Y0061815*
X00810273Y00618527*
Y00625773*
X00797225*
Y00612725*
X00803646*
Y00607324*
X00803096Y00606902*
X0080205Y00605539*
X00802044Y00605523*
X00800725*
Y00595975*
Y00586475*
Y00581574*
X00789924Y00570773*
X00785225*
Y00565825*
X00785075Y00565599*
X00784607Y00563249*
Y00536523*
X00780475*
Y00528661*
X00769205Y00517391*
X00759273*
Y00517773*
X00747749*
Y00520725*
X00752321*
X00752749Y00520669*
X00753177Y00520725*
X00759273*
Y00526821*
X00759329Y00527249*
Y00574725*
X00759811*
X00760225*
X00773273*
Y00578666*
X00776725*
Y00576975*
X00790773*
Y00586523*
X00776725*
Y00584832*
X00773273*
Y00586773*
X00769832*
Y00589725*
X00773273*
Y00601773*
X00760225*
X00759329*
Y00606725*
X00760225*
X00773273*
Y00618773*
X00769832*
Y00630972*
X00780026Y00641166*
X00807225*
Y00640773*
G37*
G36*
X00940749Y00887205D02*
X00939576Y00886719D01*
X00898398Y00927897*
X00897641Y00928402*
X00896749Y0092858*
X00880544*
X00880541Y00928605*
X00879631Y009308*
X00878185Y00932685*
X008763Y00934131*
X00874105Y00935041*
X00871749Y00935351*
X00869393Y00935041*
X00867198Y00934131*
X00865313Y00932685*
X00863867Y009308*
X00862957Y00928605*
X00862647Y00926249*
X00862957Y00923893*
X00863867Y00921698*
X00865313Y00919813*
X00867198Y00918367*
X00869393Y00917457*
X00871749Y00917147*
X00874105Y00917457*
X008763Y00918367*
X00878185Y00919813*
X00879631Y00921698*
X00880541Y00923893*
X00880544Y00923918*
X00895784*
X00936534Y00883168*
Y00867539*
X00935395Y00866977*
X0093363Y00868332*
X00931435Y00869241*
X00929079Y00869551*
X00926723Y00869241*
X00924528Y00868332*
X00922643Y00866885*
X00921197Y00865*
X00920287Y00862805*
X00919977Y00860449*
X00920287Y00858093*
X00921197Y00855898*
X00921212Y00855878*
X00917101Y00851767*
X00916596Y00851011*
X00916418Y00850119*
Y00842249*
Y00828214*
X00907053Y00818849*
X00906548Y00818093*
X0090637Y00817201*
Y00813166*
X00902084Y0080888*
X00873671*
X0087341Y0080927*
Y00810328*
X00874244Y00811577*
X00874537Y00813049*
X00874244Y00814522*
X0087341Y0081577*
Y00816828*
X00874244Y00818076*
X00874537Y00819549*
X00874244Y00821022*
X0087341Y0082227*
Y00823328*
X00874244Y00824576*
X00874537Y00826049*
X00874244Y00827522*
X0087341Y0082877*
Y00829828*
X00874244Y00831076*
X00874537Y00832549*
X00874244Y00834022*
X0087341Y0083527*
X00872162Y00836104*
X00870689Y00836397*
X00862439*
Y00839049*
X00863639Y00840249*
X00884749*
Y00846249*
X00884843Y00846343*
X00889668*
X00892225Y00843785*
Y00835725*
X00905273*
Y00842249*
Y00847773*
X008984*
X00894621Y00851552*
X00895107Y00852725*
X00905273*
Y00864773*
X00897806*
X0088879Y0087379*
X00887624Y00874568*
X00886249Y00874842*
X00875159*
Y00884682*
X00876461Y00886378*
X00877371Y00888573*
X00877681Y00890929*
X00877371Y00893285*
X00876461Y0089548*
X00875015Y00897365*
X0087313Y00898811*
X00871428Y00899517*
Y00903419*
X00871211Y00904509*
X00870593Y00905433*
X00844598Y00931429*
Y00962749*
X00844381Y00963839*
X00843763Y00964763*
X00828812Y00979715*
Y00986299*
X00828659Y00987069*
X00828222Y00987722*
X00827569Y00988158*
X00826799Y00988312*
X00817699*
X00816929Y00988158*
X00816276Y00987722*
X0081584Y00987069*
X00815686Y00986299*
Y00978199*
X0081584Y00977429*
X00814806Y00976738*
X00799647Y00991897*
X00798891Y00992402*
X00797999Y0099258*
X00786749*
X00786005Y00992432*
X00785857Y00992402*
X00785101Y00991897*
X00781101Y00987897*
X00780596Y00987141*
X00780418Y00986249*
Y00959249*
X00780596Y00958357*
X00781101Y00957601*
X00789418Y00949284*
Y00944773*
X00785225*
Y00932725*
X00798273*
Y00944773*
X0079408*
Y00950249*
X00793932Y00950993*
X00793902Y00951141*
X00793397Y00951897*
X00786238Y00959056*
X00786929Y00960089*
X00787699Y00959936*
X00795015*
X00804418Y00950533*
Y00944773*
X00800225*
Y00932725*
Y00932478*
X00799327Y0093158*
X00799249*
X00798505Y00931432*
X00798357Y00931402*
X00797601Y00930897*
X00794477Y00927773*
X00785225*
Y00919021*
X00771101Y00904897*
X00770596Y00904141*
X00770418Y00903249*
Y00845185*
X00769245Y00844699*
X00759968Y00853977*
X00760365Y00854936*
X00760589Y00856639*
X00760365Y00858342*
X00759708Y00859929*
X00758662Y00861292*
X00757299Y00862338*
X00757394Y00862815*
X00760533*
Y00875863*
X00747485*
X00746749Y00876599*
Y00997249*
X00940749*
Y00887205*
G37*
G36*
X008389Y00961569D02*
Y00930249D01*
X00839117Y00929159*
X00839735Y00928235*
X0086573Y00902239*
Y00899517*
X00864028Y00898811*
X00862143Y00897365*
X00861203Y0089614*
X00860046Y00896664*
X00860362Y00898249*
X00860011Y00900014*
X00859011Y00901511*
X00857514Y00902511*
X00855749Y00902862*
X00853984Y00902511*
X00852487Y00901511*
X00851487Y00900014*
X00851136Y00898249*
X00851487Y00896484*
X00852487Y00894987*
X00853418Y00894365*
Y00876834*
X00852177Y00875593*
X00845721*
X00841237Y00880077*
X00840481Y00880582*
X00839589Y0088076*
X00822749*
X00821857Y00880582*
X00821101Y00880077*
X00816617Y00875593*
X00807365*
X0080708Y00875878*
Y00878559*
X00806932Y00879303*
X00806902Y00879451*
X00806397Y00880207*
X00800246Y00886358*
X00800261Y00886378*
X00801171Y00888573*
X00801481Y00890929*
X00801171Y00893285*
X00800261Y0089548*
X00798815Y00897365*
X0079693Y00898811*
X00794735Y00899721*
X00792379Y00900031*
X00790023Y00899721*
X00787828Y00898811*
X00785943Y00897365*
X00784497Y0089548*
X00783587Y00893285*
X00783277Y00890929*
X00783587Y00888573*
X00784497Y00886378*
X00785943Y00884493*
X00787828Y00883047*
X00790023Y00882137*
X00792379Y00881827*
X00794735Y00882137*
X0079693Y00883047*
X0079695Y00883062*
X00802418Y00877594*
Y00875593*
X00802413*
X00790365*
Y00862545*
X00791108*
Y00849397*
X00785189*
X00783717Y00849104*
X00782468Y0084827*
X00782391Y00848155*
X00781177Y00848523*
Y0089638*
X00791714Y00906918*
X00809249*
X00810141Y00907096*
X00810897Y00907601*
X00819021Y00915725*
X00828273*
X00828418Y0091558*
Y00904864*
X0082235Y00898796*
X0082233Y00898811*
X00820135Y00899721*
X00817779Y00900031*
X00815423Y00899721*
X00813228Y00898811*
X00811343Y00897365*
X00809897Y0089548*
X00808987Y00893285*
X00808677Y00890929*
X00808987Y00888573*
X00809897Y00886378*
X00811343Y00884493*
X00813228Y00883047*
X00815423Y00882137*
X00817779Y00881827*
X00820135Y00882137*
X0082233Y00883047*
X00824215Y00884493*
X00825661Y00886378*
X00826571Y00888573*
X00826881Y00890929*
X00826571Y00893285*
X00825661Y0089548*
X00825646Y008955*
X00832397Y00902251*
X00832902Y00903007*
X0083308Y00903899*
Y00925953*
X00832932Y00926697*
X00832902Y00926846*
X00832397Y00927601*
X00829101Y00930897*
X00828345Y00931402*
X00827453Y0093158*
Y00931905*
X00828273Y00932725*
Y00944773*
X0082408*
Y00952749*
X00823902Y00953641*
X00823397Y00954397*
X00819031Y00958763*
X00819517Y00959936*
X00826799*
X00827569Y00960089*
X00828222Y00960526*
X00828659Y00961179*
X00828812Y00961949*
Y00969998*
X00829047Y00970096*
X00830153Y00970316*
X008389Y00961569*
G37*
G36*
X00920055Y00818599D02*
Y00800625D01*
X00926748*
Y00791544*
X00918084Y0078288*
X00893273*
Y00798704*
X00902535*
X00903427Y00798882*
X00904183Y00799387*
X00913397Y00808601*
X00913902Y00809357*
X0091408Y00810249*
Y00814284*
X00918882Y00819086*
X00920055Y00818599*
G37*
G36*
X00851341Y0080908D02*
X00850634Y00808022D01*
X00850341Y00806549*
X00850634Y00805077*
X00851468Y00803828*
Y0080277*
X00850634Y00801522*
X00850341Y00800049*
X00850634Y00798576*
X00851468Y00797328*
Y0079627*
X00850634Y00795022*
X00850341Y00793549*
X00850634Y00792076*
X00851468Y00790829*
X00852716Y00789994*
X00854189Y00789701*
X00870689*
X0087197Y00789956*
X00877225*
Y0078288*
X00873671*
X0087341Y0078327*
X00872162Y00784104*
X00870689Y00784397*
X00854189*
X00852716Y00784104*
X00851468Y0078327*
X00850634Y00782022*
X00850341Y00780549*
X00850634Y00779077*
X00851468Y00777828*
Y0077677*
X00851207Y0077638*
X00843549*
X00842657Y00776202*
X00841901Y00775697*
X00837847Y00771643*
X00836749Y00771862*
X00834984Y00771511*
X00834248Y00771019*
X00833128Y00771617*
Y00776021*
X00834017Y0077691*
X00834522Y00777666*
X00834552Y00777814*
X008347Y00778558*
Y00807883*
X00835682Y00808688*
X00836949Y00808436*
X00838714Y00808788*
X00840211Y00809787*
X00840487Y008102*
X00850743*
X00851341Y0080908*
G37*
G36*
X01079344Y00762836D02*
X01079134Y00762522D01*
X01078841Y00761049*
X01079134Y00759576*
X01079968Y00758328*
X01081216Y00757494*
X01082689Y00757201*
X01088608*
Y00742773*
X01083725*
Y00733521*
X01081705Y00731501*
X01080532Y00731987*
Y00746333*
X01081511Y00746987*
X01082511Y00748484*
X01082862Y00750249*
X01082511Y00752014*
X01081511Y00753511*
X01080014Y0075451*
X01078249Y00754862*
X01076484Y0075451*
X01074987Y00753511*
X01073987Y00752014*
X01073636Y00750249*
X01073987Y00748484*
X01074987Y00746987*
X0107587Y00746397*
Y00706297*
X01076048Y00705405*
X01076553Y00704649*
X01087651Y00693551*
X01088407Y00693046*
X01088555Y00693016*
X01089299Y00692868*
X01089831*
X0109043Y00691748*
X01090109Y00691269*
X01089956Y00690499*
Y00686899*
X01090109Y00686129*
X01090546Y00685476*
X01091199Y0068504*
X01091969Y00684886*
X01105569*
X01106339Y0068504*
X01106992Y00685476*
X01107429Y00686129*
X01107582Y00686899*
Y00690499*
X01107429Y00691269*
X01106992Y00691922*
Y00691976*
X01107429Y00692629*
X01107582Y00693399*
Y00696999*
X01107429Y00697769*
X01106992Y00698422*
Y00698476*
X01107429Y00699129*
X01107582Y00699899*
Y00700951*
X01108755Y00701437*
X01115669Y00694523*
Y00661273*
X01111225*
Y00647725*
X01110832Y00647332*
X01109273*
Y00647725*
Y0064823*
Y00661273*
X01098225*
Y0064823*
Y00647725*
X01097832Y00647332*
X01084773*
Y00654773*
X01072725*
Y00645085*
X01068946Y00641307*
X01067773Y00641793*
Y00654773*
X01067195*
X01066827Y00655988*
X01067236Y00656262*
X01067661Y00656898*
X01067811Y00657649*
Y00664849*
X01067661Y006656*
X01067236Y00666236*
X010666Y00666661*
X01065849Y00666811*
X01058649*
X01057898Y00666661*
X01056829Y00668261*
Y00669829*
X01061906Y00674906*
X01063899Y00673575*
X01066249Y00673107*
X01068599Y00673575*
X01070592Y00674906*
X01071923Y00676899*
X01072391Y00679249*
Y00687249*
Y00695249*
Y00722249*
X01071923Y007246*
X01070592Y00726592*
X01063202Y00733982*
X01061209Y00735313*
X01058859Y00735781*
X01053729*
X01053212Y00735995*
X01051509Y00736219*
X01051273Y0073801*
X01051417Y00748379*
X01051509Y00748459*
X01053212Y00748683*
X01054799Y0074934*
X01056162Y00750386*
X01056975Y00751446*
X01060459*
X01061834Y0075172*
X01063Y00752498*
X01074457Y00763956*
X01078745*
X01079344Y00762836*
G37*
G36*
X0123825Y00785293D02*
Y00706724D01*
X01237076Y00706238*
X01235603Y00707711*
Y00717073*
X01221168*
X01220682Y00718246*
X01226814Y00724378*
X01228935Y00724657*
X0123113Y00725567*
X01233015Y00727013*
X01234461Y00728898*
X01235371Y00731093*
X01235681Y00733449*
X01235371Y00735805*
X01234461Y00738*
X01233015Y00739885*
X0123113Y00741331*
X01228935Y00742241*
X01226579Y00742551*
X01224223Y00742241*
X01222028Y00741331*
X01220143Y00739885*
X01218697Y00738*
X01217787Y00735805*
X01217508Y00733684*
X01202596Y00718772*
X0120155Y00717409*
X01200893Y00715822*
X01200669Y00714119*
Y00704842*
X01182773*
Y00707773*
X01179842*
Y00714749*
X01179568Y00716124*
X0117879Y0071729*
X01177773Y00718306*
Y00725773*
X01164725*
Y00723342*
X01162773*
Y00725773*
X01150229*
X01149742Y00726946*
X01153521Y00730725*
X01162773*
Y00742773*
X01153521*
X01140985Y00755309*
X01141249Y00756636*
X01143014Y00756988*
X01144511Y00757987*
X01144999Y00758718*
X01148707*
X01148969Y00758328*
X01150216Y00757494*
X01151689Y00757201*
X01168189*
X01169662Y00757494*
X0117091Y00758328*
X01171744Y00759576*
X01172037Y00761049*
X01171744Y00762522*
X0117091Y0076377*
Y00764828*
X01171171Y00765218*
X01188158*
Y00741653*
X01183715*
Y00740342*
X01177773*
Y00742773*
X01164725*
Y00730725*
X01177773*
Y00733156*
X01183715*
Y00728605*
X01196763*
Y00741653*
X0119282*
Y00765218*
X01215549*
X01216441Y00765396*
X01217197Y00765901*
X01237076Y00785779*
X0123825Y00785293*
G37*
G36*
X0112449Y00790436D02*
Y00780786D01*
X01123601Y00779897*
X01123096Y00779141*
X01122918Y00778249*
Y00763438*
X01123096Y00762547*
X01123601Y0076179*
X01135365Y00750027*
X01134996Y00748811*
X01133484Y00748511*
X01131987Y00747511*
X01130987Y00746014*
X01130636Y00744249*
X01130987Y00742484*
X01131987Y00740987*
X01133484Y00739987*
X01135249Y00739636*
X01135841Y00739754*
X01136822Y00738948*
Y00692345*
X01137Y00691453*
X01137505Y00690697*
X01147651Y00680551*
X01148407Y00680046*
X01149052Y00679917*
X01149109Y00679629*
X01149546Y00678976*
X01150199Y0067854*
X01150969Y00678386*
X01164569*
X01165339Y0067854*
X01165992Y00678976*
X01166429Y00679629*
X01166582Y00680399*
Y00683999*
X01166429Y00684769*
X01165992Y00685422*
Y00685476*
X01166429Y00686129*
X01166582Y00686899*
Y00690499*
X01166429Y00691269*
X01165992Y00691922*
Y00691976*
X01166429Y00692629*
X01166582Y00693399*
Y00696999*
X01166429Y00697769*
X01166608Y00698106*
X01169725*
Y00694725*
X01182773*
Y00697656*
X01200669*
Y00686975*
X01190523Y00676829*
X01128829*
Y00697249*
X01128605Y00698952*
X01127948Y00700539*
X01126902Y00701902*
X01112589Y00716215*
Y00720749*
Y00735989*
Y00744283*
X01118902Y00750596*
X01119948Y00751959*
X01120605Y00753546*
X01120829Y00755249*
Y00783249*
X01120605Y00784952*
X01119948Y00786539*
X01118902Y00787902*
X01118591Y00788213*
Y00790428*
X01119711Y00791027*
X0111977Y00790987*
X01121535Y00790636*
X011233Y00790987*
X0112337Y00791034*
X0112449Y00790436*
G37*
G36*
X01217555Y00699025D02*
D01*
X01226917*
X01228357Y00697585*
Y00646249*
X01128829*
Y00663669*
X01193249*
X01194952Y00663893*
X01196539Y0066455*
X01197902Y00665596*
X01211902Y00679596*
X01212948Y00680959*
X01213605Y00682546*
X01213631Y00682744*
X01213829Y00684249*
Y00699263*
X01217297Y00699282*
X01217555Y00699025*
G37*
G36*
X01236249Y00532904D02*
Y00506249D01*
X01210273*
Y00507225*
Y00524107*
X01223249*
X01225599Y00524575*
X01227592Y00525907*
X01235076Y0053339*
X01236249Y00532904*
G37*
G36*
X01228357Y00544043D02*
X01220705Y00536391D01*
X01181249*
X01178899Y00535923*
X01177177Y00534773*
X01172725*
Y00532818*
X01172387Y00532592*
X01157186Y00517391*
X01105793*
X01094523Y00528661*
Y00536523*
X01094391*
Y00557725*
X01095773*
Y00564634*
X01108114Y00576975*
X01112273*
Y00586475*
Y00595669*
X01119282*
Y00595309*
X01119452Y00594457*
X01119934Y00593734*
X01120657Y00593252*
X01121509Y00593082*
X01136989*
X01137841Y00593252*
X01138564Y00593734*
X01139046Y00594457*
X01139216Y00595309*
Y00595669*
X01146179*
Y00595049*
X0114636Y00594142*
X01146873Y00593373*
X01147642Y0059286*
X01148549Y0059268*
X01203949*
X01204856Y0059286*
X01205549Y00593323*
X01206307Y00592918*
X01206669Y00592676*
Y00565975*
X01205141Y00564447*
X01204856Y00564638*
X01203949Y00564818*
X01148549*
X01147642Y00564638*
X01146873Y00564125*
X0114636Y00563356*
X01146179Y00562449*
Y00554831*
X01146169Y00554749*
Y00544273*
X01144725*
Y00526225*
X01160773*
Y00544273*
X01159329*
Y0054568*
X01203949*
X01204856Y0054586*
X01205625Y00546374*
X01206138Y00547142*
X01206319Y00548049*
Y0054881*
X01206952Y00548894*
X01208539Y0054955*
X01209902Y00550596*
X01217902Y00558596*
X01218948Y00559959*
X01219605Y00561546*
X01219829Y00563249*
Y00613249*
X01219605Y00614952*
X01218948Y00616539*
X01217902Y00617902*
X01209902Y00625902*
X01208539Y00626948*
X01206952Y00627605*
X01205249Y00627829*
X01136975*
X01128829Y00635975*
Y00644249*
X01228357*
Y00544043*
G37*
G36*
X01104725Y00640773D02*
D01*
Y00638102*
X01091999*
X01090429Y00637789*
X01089098Y006369*
X01082348Y0063015*
X01081459Y00628819*
X01081146Y00627249*
Y00625773*
X01078725*
Y00618527*
X01078348Y0061815*
X01077458Y00616819*
X01077146Y00615249*
Y00605523*
X01074225*
Y00595975*
X01088273*
Y00605523*
X01085352*
Y00612725*
X01091773*
Y00625773*
X01091235*
X01090749Y00626946*
X01093698Y00629896*
X01104725*
Y00627225*
X01115773*
Y00628996*
X01116976Y00629405*
X01117596Y00628596*
X01129596Y00616596*
X01130959Y0061555*
X01131616Y00615278*
X01132546Y00614893*
X01134249Y00614669*
X01202523*
X01204185Y00613007*
X01203949Y00611818*
X01148549*
X01147642Y00611638*
X01146873Y00611124*
X0114636Y00610356*
X01146179Y00609449*
Y00608829*
X01138465*
X01137841Y00609246*
X01136989Y00609416*
X01121509*
X01120657Y00609246*
X01120033Y00608829*
X01109352*
Y00615249*
X0110904Y00616819*
X0110815Y0061815*
X01107773Y00618527*
Y00625773*
X01094725*
Y00612725*
X01101146*
Y00607324*
X01100596Y00606902*
X0109955Y00605539*
X01099544Y00605523*
X01098225*
Y00595975*
Y00586475*
Y00581574*
X01087424Y00570773*
X01082725*
Y00565825*
X01082575Y00565599*
X01082107Y00563249*
Y00536523*
X01077976*
Y00528661*
X01066705Y00517391*
X01056773*
Y00517773*
X01045249*
Y00520725*
X01049821*
X01050249Y00520669*
X01050677Y00520725*
X01056773*
Y00526821*
X01056829Y00527249*
Y00574725*
X01057311*
X01057725*
X01070773*
Y00578666*
X01074225*
Y00576975*
X01088273*
Y00586523*
X01074225*
Y00584832*
X01070773*
Y00586773*
X01067332*
Y00589725*
X01070773*
Y00601773*
X01057725*
X01056829*
Y00606725*
X01057725*
X01070773*
Y00618773*
X01067332*
Y00630972*
X01077526Y00641166*
X01104725*
Y00640773*
G37*
G36*
X0123825Y00887205D02*
X01237076Y00886719D01*
X01195897Y00927897*
X01195141Y00928402*
X01194249Y0092858*
X01178044*
X01178041Y00928605*
X01177131Y009308*
X01175685Y00932685*
X011738Y00934131*
X01171605Y00935041*
X01169249Y00935351*
X01166893Y00935041*
X01164698Y00934131*
X01162813Y00932685*
X01161367Y009308*
X01160457Y00928605*
X01160147Y00926249*
X01160457Y00923893*
X01161367Y00921698*
X01162813Y00919813*
X01164698Y00918367*
X01166893Y00917457*
X01169249Y00917147*
X01171605Y00917457*
X011738Y00918367*
X01175685Y00919813*
X01177131Y00921698*
X01178041Y00923893*
X01178044Y00923918*
X01193284*
X01234034Y00883168*
Y00867539*
X01232895Y00866977*
X0123113Y00868332*
X01228935Y00869241*
X01226579Y00869551*
X01224223Y00869241*
X01222028Y00868332*
X01220143Y00866885*
X01218697Y00865*
X01217787Y00862805*
X01217477Y00860449*
X01217787Y00858093*
X01218697Y00855898*
X01218712Y00855878*
X01214601Y00851767*
X01214096Y00851011*
X01213918Y00850119*
Y00842249*
Y00828214*
X01204553Y00818849*
X01204048Y00818093*
X0120387Y00817201*
Y00813166*
X01199584Y0080888*
X01171171*
X0117091Y0080927*
Y00810328*
X01171744Y00811577*
X01172037Y00813049*
X01171744Y00814522*
X0117091Y0081577*
Y00816828*
X01171744Y00818076*
X01172037Y00819549*
X01171744Y00821022*
X0117091Y0082227*
Y00823328*
X01171744Y00824576*
X01172037Y00826049*
X01171744Y00827522*
X0117091Y0082877*
Y00829828*
X01171744Y00831076*
X01172037Y00832549*
X01171744Y00834022*
X0117091Y0083527*
X01169662Y00836104*
X01168189Y00836397*
X01159939*
Y00839049*
X01161139Y00840249*
X01182249*
Y00846249*
X01182343Y00846343*
X01187168*
X01189725Y00843785*
Y00835725*
X01202773*
Y00842249*
Y00847773*
X011959*
X01192121Y00851552*
X01192607Y00852725*
X01202773*
Y00864773*
X01195306*
X0118629Y0087379*
X01185124Y00874568*
X01183749Y00874842*
X01172659*
Y00884682*
X01173961Y00886378*
X01174871Y00888573*
X01175181Y00890929*
X01174871Y00893285*
X01173961Y0089548*
X01172515Y00897365*
X0117063Y00898811*
X01168928Y00899517*
Y00903419*
X01168711Y00904509*
X01168093Y00905433*
X01142098Y00931429*
Y00962749*
X01141881Y00963839*
X01141263Y00964763*
X01126312Y00979715*
Y00986299*
X01126159Y00987069*
X01125722Y00987722*
X01125069Y00988158*
X01124299Y00988312*
X01115199*
X01114429Y00988158*
X01113776Y00987722*
X0111334Y00987069*
X01113186Y00986299*
Y00978199*
X0111334Y00977429*
X01112306Y00976738*
X01097147Y00991897*
X01096391Y00992402*
X01095499Y0099258*
X01084249*
X01083505Y00992432*
X01083357Y00992402*
X01082601Y00991897*
X01078601Y00987897*
X01078096Y00987141*
X01077918Y00986249*
Y00959249*
X01078096Y00958357*
X01078601Y00957601*
X01086918Y00949284*
Y00944773*
X01082725*
Y00932725*
X01095773*
Y00944773*
X0109158*
Y00950249*
X01091432Y00950993*
X01091402Y00951141*
X01090897Y00951897*
X01083738Y00959056*
X01084429Y00960089*
X01085199Y00959936*
X01092515*
X01101918Y00950533*
Y00944773*
X01097725*
Y00932725*
Y00932478*
X01096827Y0093158*
X01096749*
X01096005Y00931432*
X01095857Y00931402*
X01095101Y00930897*
X01091977Y00927773*
X01082725*
Y00919021*
X01068601Y00904897*
X01068096Y00904141*
X01067918Y00903249*
Y00845185*
X01066745Y00844699*
X01057468Y00853977*
X01057865Y00854936*
X01058089Y00856639*
X01057865Y00858342*
X01057208Y00859929*
X01056162Y00861292*
X01054799Y00862338*
X01054894Y00862815*
X01058033*
Y00875863*
X01044985*
X01044249Y00876599*
Y00997249*
X0123825*
Y00887205*
G37*
G36*
X011364Y00961569D02*
Y00930249D01*
X01136617Y00929159*
X01137235Y00928235*
X0116323Y00902239*
Y00899517*
X01161528Y00898811*
X01159643Y00897365*
X01158703Y0089614*
X01157546Y00896664*
X01157862Y00898249*
X01157511Y00900014*
X01156511Y00901511*
X01155014Y00902511*
X01153249Y00902862*
X01151484Y00902511*
X01149987Y00901511*
X01148987Y00900014*
X01148636Y00898249*
X01148987Y00896484*
X01149987Y00894987*
X01150918Y00894365*
Y00876834*
X01149677Y00875593*
X01143221*
X01138737Y00880077*
X01137981Y00880582*
X01137089Y0088076*
X01120249*
X01119357Y00880582*
X01118601Y00880077*
X01114117Y00875593*
X01104865*
X0110458Y00875878*
Y00878559*
X01104432Y00879303*
X01104402Y00879451*
X01103897Y00880207*
X01097746Y00886358*
X01097761Y00886378*
X01098671Y00888573*
X01098981Y00890929*
X01098671Y00893285*
X01097761Y0089548*
X01096315Y00897365*
X0109443Y00898811*
X01092235Y00899721*
X01089879Y00900031*
X01087523Y00899721*
X01085328Y00898811*
X01083443Y00897365*
X01081997Y0089548*
X01081087Y00893285*
X01080777Y00890929*
X01081087Y00888573*
X01081997Y00886378*
X01083443Y00884493*
X01085328Y00883047*
X01087523Y00882137*
X01089879Y00881827*
X01092235Y00882137*
X0109443Y00883047*
X0109445Y00883062*
X01099918Y00877594*
Y00875593*
X01099913*
X01087865*
Y00862545*
X01088608*
Y00849397*
X01082689*
X01081216Y00849104*
X01079968Y0084827*
X01079891Y00848155*
X01078676Y00848523*
Y0089638*
X01089214Y00906918*
X01106749*
X01107641Y00907096*
X01108397Y00907601*
X01116521Y00915725*
X01125773*
X01125918Y0091558*
Y00904864*
X0111985Y00898796*
X0111983Y00898811*
X01117635Y00899721*
X01115279Y00900031*
X01112923Y00899721*
X01110728Y00898811*
X01108843Y00897365*
X01107397Y0089548*
X01106487Y00893285*
X01106177Y00890929*
X01106487Y00888573*
X01107397Y00886378*
X01108843Y00884493*
X01110728Y00883047*
X01112923Y00882137*
X01115279Y00881827*
X01117635Y00882137*
X0111983Y00883047*
X01121715Y00884493*
X01123161Y00886378*
X01124071Y00888573*
X01124381Y00890929*
X01124071Y00893285*
X01123161Y0089548*
X01123146Y008955*
X01129897Y00902251*
X01130402Y00903007*
X0113058Y00903899*
Y00925953*
X01130432Y00926697*
X01130402Y00926846*
X01129897Y00927601*
X01126601Y00930897*
X01125845Y00931402*
X01124953Y0093158*
Y00931905*
X01125773Y00932725*
Y00944773*
X0112158*
Y00952749*
X01121402Y00953641*
X01120897Y00954397*
X01116531Y00958763*
X01117017Y00959936*
X01124299*
X01125069Y00960089*
X01125722Y00960526*
X01126159Y00961179*
X01126312Y00961949*
Y00969998*
X01126547Y00970096*
X01127653Y00970316*
X011364Y00961569*
G37*
G36*
X01217555Y00818599D02*
Y00800625D01*
X01224248*
Y00791544*
X01215584Y0078288*
X01190773*
Y00798704*
X01200035*
X01200927Y00798882*
X01201683Y00799387*
X01210897Y00808601*
X01211402Y00809357*
X0121158Y00810249*
Y00814284*
X01216382Y00819086*
X01217555Y00818599*
G37*
G36*
X01148842Y0080908D02*
X01148134Y00808022D01*
X01147841Y00806549*
X01148134Y00805077*
X01148969Y00803828*
Y0080277*
X01148134Y00801522*
X01147841Y00800049*
X01148134Y00798576*
X01148969Y00797328*
Y0079627*
X01148134Y00795022*
X01147841Y00793549*
X01148134Y00792076*
X01148969Y00790829*
X01150216Y00789994*
X01151689Y00789701*
X01168189*
X0116947Y00789956*
X01174725*
Y0078288*
X01171171*
X0117091Y0078327*
X01169662Y00784104*
X01168189Y00784397*
X01151689*
X01150216Y00784104*
X01148969Y0078327*
X01148134Y00782022*
X01147841Y00780549*
X01148134Y00779077*
X01148969Y00777828*
Y0077677*
X01148707Y0077638*
X01141049*
X01140157Y00776202*
X01139401Y00775697*
X01135347Y00771643*
X01134249Y00771862*
X01132484Y00771511*
X01131748Y00771019*
X01130628Y00771617*
Y00776021*
X01131517Y0077691*
X01132022Y00777666*
X01132052Y00777814*
X011322Y00778558*
Y00807883*
X01133182Y00808688*
X01134449Y00808436*
X01136214Y00808788*
X01137711Y00809787*
X01137987Y008102*
X01148243*
X01148842Y0080908*
G37*
%LNuopioid_-_rev.b0_-_panel-2*%
%LPC*%
G36*
X00916749Y00995351D02*
X00914393Y00995041D01*
X00912198Y00994132*
X00910313Y00992685*
X00908867Y009908*
X00907957Y00988605*
X00907647Y00986249*
X00907957Y00983893*
X00908867Y00981698*
X00910313Y00979813*
X00912198Y00978367*
X00914393Y00977457*
X00916749Y00977147*
X00919105Y00977457*
X009213Y00978367*
X00923185Y00979813*
X00924631Y00981698*
X00925541Y00983893*
X00925851Y00986249*
X00925541Y00988605*
X00924631Y009908*
X00923185Y00992685*
X009213Y00994132*
X00919105Y00995041*
X00916749Y00995351*
G37*
G36*
X00871749D02*
X00869393Y00995041D01*
X00867198Y00994132*
X00865313Y00992685*
X00863867Y009908*
X00862957Y00988605*
X00862647Y00986249*
X00862957Y00983893*
X00863867Y00981698*
X00865313Y00979813*
X00867198Y00978367*
X00869393Y00977457*
X00871749Y00977147*
X00874105Y00977457*
X008763Y00978367*
X00878185Y00979813*
X00879631Y00981698*
X00880541Y00983893*
X00880851Y00986249*
X00880541Y00988605*
X00879631Y009908*
X00878185Y00992685*
X008763Y00994132*
X00874105Y00995041*
X00871749Y00995351*
G37*
G36*
X00903003Y00899953D02*
X00884955D01*
Y00881905*
X00903003*
Y00899953*
G37*
G36*
X01214249Y00995351D02*
X01211893Y00995041D01*
X01209698Y00994132*
X01207813Y00992685*
X01206367Y009908*
X01205457Y00988605*
X01205147Y00986249*
X01205457Y00983893*
X01206367Y00981698*
X01207813Y00979813*
X01209698Y00978367*
X01211893Y00977457*
X01214249Y00977147*
X01216605Y00977457*
X012188Y00978367*
X01220685Y00979813*
X01222131Y00981698*
X01223041Y00983893*
X01223351Y00986249*
X01223041Y00988605*
X01222131Y009908*
X01220685Y00992685*
X012188Y00994132*
X01216605Y00995041*
X01214249Y00995351*
G37*
G36*
X01169249D02*
X01166893Y00995041D01*
X01164698Y00994132*
X01162813Y00992685*
X01161367Y009908*
X01160457Y00988605*
X01160147Y00986249*
X01160457Y00983893*
X01161367Y00981698*
X01162813Y00979813*
X01164698Y00978367*
X01166893Y00977457*
X01169249Y00977147*
X01171605Y00977457*
X011738Y00978367*
X01175685Y00979813*
X01177131Y00981698*
X01178041Y00983893*
X01178351Y00986249*
X01178041Y00988605*
X01177131Y009908*
X01175685Y00992685*
X011738Y00994132*
X01171605Y00995041*
X01169249Y00995351*
G37*
G36*
X01200503Y00899953D02*
X01182455D01*
Y00881905*
X01200503*
Y00899953*
G37*
%LNuopioid_-_rev.b0_-_panel-3*%
%LPD*%
G54D10*
X00858749Y00719749D03*
Y00736749D03*
X00792749Y00719749D03*
Y00736749D03*
X00898749Y00858749D03*
Y00841749D03*
X00791749Y00921749D03*
Y00938749D03*
X00806749Y00921749D03*
Y00938749D03*
X00873749Y00719749D03*
Y00736749D03*
X00916749Y00655749D03*
Y00638749D03*
X00766749Y00580749D03*
Y00563749D03*
Y00612749D03*
Y00595749D03*
X00821749Y00921749D03*
Y00938749D03*
X01156249Y00719749D03*
Y00736749D03*
X01090249Y00719749D03*
Y00736749D03*
X01196249Y00858749D03*
Y00841749D03*
X01089249Y00921749D03*
Y00938749D03*
X01104249Y00921749D03*
Y00938749D03*
X01171249Y00719749D03*
Y00736749D03*
X01214249Y00655749D03*
Y00638749D03*
X01064249Y00580749D03*
Y00563749D03*
Y00612749D03*
Y00595749D03*
X01119249Y00921749D03*
Y00938749D03*
G54D11*
X00878749Y00701249D03*
Y00685249D03*
X00883819Y00842289D03*
Y00858289D03*
X00881749Y00528249D03*
Y00512249D03*
X00752749Y00511249D03*
Y00527249D03*
X01176249Y00701249D03*
Y00685249D03*
X01181319Y00842289D03*
Y00858289D03*
X01179249Y00528249D03*
Y00512249D03*
X01050249Y00511249D03*
Y00527249D03*
G54D12*
X00885249Y00791249D03*
X00902249D03*
X00855249Y00535249D03*
X00838249D03*
X01182749Y00791249D03*
X01199749D03*
X01152749Y00535249D03*
X01135749D03*
G54D13*
X00862439Y00761049D03*
Y00767549D03*
Y00774049D03*
Y00780549D03*
Y00787049D03*
Y00793549D03*
Y00800049D03*
Y00806549D03*
Y00813049D03*
Y00819549D03*
Y00826049D03*
Y00832549D03*
Y00839049D03*
Y00845549D03*
X00793439Y00761049D03*
Y00767549D03*
Y00774049D03*
Y00780549D03*
Y00787049D03*
Y00793549D03*
Y00800049D03*
Y00806549D03*
Y00813049D03*
Y00819549D03*
Y00826049D03*
Y00832549D03*
Y00839049D03*
Y00845549D03*
X01159939Y00761049D03*
Y00767549D03*
Y00774049D03*
Y00780549D03*
Y00787049D03*
Y00793549D03*
Y00800049D03*
Y00806549D03*
Y00813049D03*
Y00819549D03*
Y00826049D03*
Y00832549D03*
Y00839049D03*
Y00845549D03*
X01090939Y00761049D03*
Y00767549D03*
Y00774049D03*
Y00780549D03*
Y00787049D03*
Y00793549D03*
Y00800049D03*
Y00806549D03*
Y00813049D03*
Y00819549D03*
Y00826049D03*
Y00832549D03*
Y00839049D03*
Y00845549D03*
G54D14*
X00878749Y00555249D03*
Y00602249D03*
X01176249Y00555249D03*
Y00602249D03*
G54D15*
X00831749Y00601249D03*
Y00564249D03*
X01129249Y00601249D03*
Y00564249D03*
G54D16*
X00781249Y00661249D03*
X00764749D03*
X01078749D03*
X01062249D03*
G54D17*
X00812749Y00633999D03*
X00806249Y00654499D03*
X00819249D03*
X01110249Y00633999D03*
X01103749Y00654499D03*
X01116749D03*
G54D18*
X00807749Y00600749D03*
Y00591249D03*
Y00581749D03*
X00783749D03*
Y00591249D03*
Y00600749D03*
X01105249D03*
Y00591249D03*
Y00581749D03*
X01081249D03*
Y00591249D03*
Y00600749D03*
G54D19*
X00764249Y00648249D03*
X00781249D03*
X00831949Y00869069D03*
X00848949D03*
X00813389D03*
X00796389D03*
X01061749Y00648249D03*
X01078749D03*
X01129449Y00869069D03*
X01146449D03*
X01110889D03*
X01093889D03*
G54D20*
X00860269Y00701699D03*
Y00695199D03*
Y00688699D03*
Y00682199D03*
X00801269D03*
Y00688699D03*
Y00695199D03*
Y00701699D03*
X01157769D03*
Y00695199D03*
Y00688699D03*
Y00682199D03*
X01098769D03*
Y00688699D03*
Y00695199D03*
Y00701699D03*
G54D21*
X00808509Y00720749D03*
X00824509D03*
X00808509Y00735989D03*
X00824509D03*
X00787749Y00619249D03*
X00803749D03*
X00807749Y00564249D03*
X00791749D03*
X01106009Y00720749D03*
X01122009D03*
X01106009Y00735989D03*
X01122009D03*
X01085249Y00619249D03*
X01101249D03*
X01105249Y00564249D03*
X01089249D03*
X00892739Y00735129D03*
X00754009Y00869339D03*
X01190239Y00735129D03*
X01051509Y00869339D03*
G54D22*
X00822249Y00965999D03*
Y00982249D03*
X00792249D03*
Y00965999D03*
X01119749D03*
Y00982249D03*
X01089749D03*
Y00965999D03*
G54D23*
X00929079Y00708049D02*
X00936999Y00700129D01*
Y00541499D02*
Y00700129D01*
X00925749Y00530249D02*
X00936999Y00541499D01*
X00788749Y00528249D02*
X00790749Y00530249D01*
X00771749Y00511249D02*
X00788749Y00528249D01*
X00790749Y00563249D02*
X00791749Y00564249D01*
X00790749Y00530249D02*
Y00563249D01*
X00752749Y00511249D02*
X00771749D01*
X00754009Y00729639D02*
X00761359D01*
X00768749Y00722249*
Y00679249D02*
Y00687249D01*
Y00695249*
Y00722249*
X00883749Y00530249D02*
X00925749D01*
X00881749Y00528249D02*
X00883749Y00530249D01*
X0087923Y00528249D02*
X00881749D01*
X00788749D02*
X00805749Y00511249D01*
X0086223*
X0087923Y00528249*
X01226579Y00708049D02*
X01234499Y00700129D01*
Y00541499D02*
Y00700129D01*
X01223249Y00530249D02*
X01234499Y00541499D01*
X01086249Y00528249D02*
X01088249Y00530249D01*
X01069249Y00511249D02*
X01086249Y00528249D01*
X01088249Y00563249D02*
X01089249Y00564249D01*
X01088249Y00530249D02*
Y00563249D01*
X01050249Y00511249D02*
X01069249D01*
X01051509Y00729639D02*
X01058859D01*
X01066249Y00722249*
Y00679249D02*
Y00687249D01*
Y00695249*
Y00722249*
X01181249Y00530249D02*
X01223249D01*
X01179249Y00528249D02*
X01181249Y00530249D01*
X0117673Y00528249D02*
X01179249D01*
X01086249D02*
X01103249Y00511249D01*
X0115973*
X0117673Y00528249*
G54D24*
X00786749Y00990249D02*
X00797999D01*
X00782749Y00986249D02*
X00786749Y00990249D01*
X00782749Y00959249D02*
Y00986249D01*
X00797999Y00990249D02*
X00822249Y00965999D01*
X00782749Y00959249D02*
X00791749Y00950249D01*
Y00938749D02*
Y00950249D01*
Y00921749D02*
X00799249Y00929249D01*
X00792249Y00982249D02*
X00821749Y00952749D01*
Y00938749D02*
Y00952749D01*
X00792249Y00965999D02*
X00806749Y00951499D01*
Y00938749D02*
Y00951499D01*
X00832369Y00778558D02*
Y0080794D01*
X00830797Y00809511D02*
X00832369Y0080794D01*
X00830797Y00809511D02*
Y00814372D01*
X00829321Y00779821D02*
Y00806677D01*
X00827749Y00808249D02*
X00829321Y00806677D01*
X00827749Y00808249D02*
Y00816249D01*
X00830797Y00776987D02*
X00832369Y00778558D01*
X00830797Y00764701D02*
Y00776987D01*
X00827749Y00778249D02*
X00829321Y00779821D01*
X00827749Y00763438D02*
Y00778249D01*
X00804749Y00858249D02*
X00806749Y00856249D01*
Y00821249D02*
Y00856249D01*
X00805049Y00819549D02*
X00806749Y00821249D01*
X00824035Y00816845D02*
X00839739Y00832549D01*
X00862439*
X00830797Y00764701D02*
X00858749Y00736749D01*
X00830797Y00814372D02*
X00835974Y00819549D01*
X00827749Y00816249D02*
X00837549Y00826049D01*
X00827749Y00763438D02*
X00844701Y00746487D01*
X00837549Y00826049D02*
X00862439D01*
X00835974Y00819549D02*
X00862439D01*
X00754009Y00780439D02*
X00760399Y00774049D01*
X00793439*
X00765049Y00780549D02*
X00793439D01*
X00754009Y00843939D02*
X00765701Y00832247D01*
X00754009Y00831239D02*
X00762653Y00822595D01*
X00781449Y00819549D02*
X00793439D01*
X00774749Y00826249D02*
X00781449Y00819549D01*
X00774749Y00816249D02*
X00777949Y00813049D01*
X00793439*
Y00845549D02*
Y00866119D01*
X00782425Y00826049D02*
X00793439D01*
X00781093Y00839049D02*
X00793439D01*
X00789938Y00920439D02*
Y00921749D01*
X00862439Y00780549D02*
X00919049D01*
X00929079Y00790579*
Y00809649*
X00862439Y00800049D02*
X00863425Y00801035D01*
X00793439Y00819549D02*
X00805049D01*
X00804749Y00858249D02*
Y00878559D01*
X00792379Y00890929D02*
X00804749Y00878559D01*
X00848949Y00869069D02*
X00855749Y00875869D01*
Y00898249*
X00813389Y00869069D02*
X00822749Y00878429D01*
X00839589*
X00848949Y00869069*
X00847749Y00725749D02*
X00858749Y00736749D01*
X00837749Y00744249D02*
X00841653Y00740345D01*
X00843949Y00761049D02*
X00862439D01*
X00843549Y00774049D02*
X00862439D01*
X00836749Y00767249D02*
X00843549Y00774049D01*
X00793439Y00737439D02*
Y00761049D01*
X00783749Y00727749D02*
X00792749Y00736749D01*
X00783749Y00709249D02*
Y00727749D01*
Y00709249D02*
X00791299Y00701699D01*
X00801269*
X00780701Y00750201D02*
X00780749Y00750249D01*
X00780701Y00706297D02*
Y00750201D01*
Y00706297D02*
X00791799Y00695199D01*
X00801269*
X00841653Y00692345D02*
Y00740345D01*
Y00692345D02*
X00851799Y00682199D01*
X00860269*
X00847749Y00699249D02*
Y00725749D01*
Y00699249D02*
X00851799Y00695199D01*
X00860269*
X00844701Y00695297D02*
Y00746487D01*
Y00695297D02*
X00851299Y00688699D01*
X00860269*
X00768749Y00814249D02*
X00776449Y00806549D01*
X00793439*
X00781449Y00832549D02*
X00793439D01*
X00862439Y00767549D02*
X00918049D01*
X00938865Y00788365*
Y00884133*
X00896749Y00926249D02*
X00938865Y00884133D01*
X00871749Y00926249D02*
X00896749D01*
X00892989Y00735129D02*
Y00767549D01*
X00824035Y00795249D02*
Y00816845D01*
X00762653Y00797345D02*
Y00822595D01*
Y00797345D02*
X00772949Y00787049D01*
X00793439*
X00765701Y00801297D02*
Y00832247D01*
Y00801297D02*
X00773449Y00793549D01*
X00793439*
X00918749Y00850119D02*
X00929079Y00860449D01*
Y00832579D02*
Y00835049D01*
X00918749Y00827249D02*
Y00850119D01*
X00863425Y00801035D02*
X00902535D01*
X00862439Y00806549D02*
X00903049D01*
X00902535Y00801035D02*
X00911749Y00810249D01*
Y00815249*
X00929079Y00832579*
X00903049Y00806549D02*
X00908701Y00812201D01*
Y00817201*
X00918749Y00827249*
X00768749Y00814249D02*
Y00841899D01*
X00754009Y00856639D02*
X00768749Y00841899D01*
X00772749Y00835724D02*
X00782425Y00826049D01*
X00772749Y00835724D02*
Y00903249D01*
X00789938Y00920439*
X00775797Y00838201D02*
X00781449Y00832549D01*
X00778845Y00841297D02*
X00781093Y00839049D01*
X00799249Y00929249D02*
X00827453D01*
X00817779Y00890929D02*
X00830749Y00903899D01*
Y00925953*
X00827453Y00929249D02*
X00830749Y00925953D01*
X00798249Y00913249D02*
X00806749Y00921749D01*
X00809249Y00909249D02*
X00821749Y00921749D01*
X00775797Y00838201D02*
Y00900297D01*
X00788749Y00913249*
X00798249*
X00778845Y00841297D02*
Y00897345D01*
X00790749Y00909249*
X00809249*
X01084249Y00990249D02*
X01095499D01*
X01080249Y00986249D02*
X01084249Y00990249D01*
X01080249Y00959249D02*
Y00986249D01*
X01095499Y00990249D02*
X01119749Y00965999D01*
X01080249Y00959249D02*
X01089249Y00950249D01*
Y00938749D02*
Y00950249D01*
Y00921749D02*
X01096749Y00929249D01*
X01089749Y00982249D02*
X01119249Y00952749D01*
Y00938749D02*
Y00952749D01*
X01089749Y00965999D02*
X01104249Y00951499D01*
Y00938749D02*
Y00951499D01*
X01129869Y00778558D02*
Y0080794D01*
X01128297Y00809511D02*
X01129869Y0080794D01*
X01128297Y00809511D02*
Y00814372D01*
X01126821Y00779821D02*
Y00806677D01*
X01125249Y00808249D02*
X01126821Y00806677D01*
X01125249Y00808249D02*
Y00816249D01*
X01128297Y00776987D02*
X01129869Y00778558D01*
X01128297Y00764701D02*
Y00776987D01*
X01125249Y00778249D02*
X01126821Y00779821D01*
X01125249Y00763438D02*
Y00778249D01*
X01102249Y00858249D02*
X01104249Y00856249D01*
Y00821249D02*
Y00856249D01*
X01102549Y00819549D02*
X01104249Y00821249D01*
X01121535Y00816845D02*
X01137239Y00832549D01*
X01159939*
X01128297Y00764701D02*
X01156249Y00736749D01*
X01128297Y00814372D02*
X01133475Y00819549D01*
X01125249Y00816249D02*
X01135049Y00826049D01*
X01125249Y00763438D02*
X01142201Y00746487D01*
X01135049Y00826049D02*
X01159939D01*
X01133475Y00819549D02*
X01159939D01*
X01051509Y00780439D02*
X01057899Y00774049D01*
X01090939*
X01062549Y00780549D02*
X01090939D01*
X01051509Y00843939D02*
X01063201Y00832247D01*
X01051509Y00831239D02*
X01060153Y00822595D01*
X01078949Y00819549D02*
X01090939D01*
X01072249Y00826249D02*
X01078949Y00819549D01*
X01072249Y00816249D02*
X01075449Y00813049D01*
X01090939*
Y00845549D02*
Y00866119D01*
X01079925Y00826049D02*
X01090939D01*
X01078593Y00839049D02*
X01090939D01*
X01087438Y00920439D02*
Y00921749D01*
X01159939Y00780549D02*
X01216549D01*
X01226579Y00790579*
Y00809649*
X01159939Y00800049D02*
X01160925Y00801035D01*
X01090939Y00819549D02*
X01102549D01*
X01102249Y00858249D02*
Y00878559D01*
X01089879Y00890929D02*
X01102249Y00878559D01*
X01146449Y00869069D02*
X01153249Y00875869D01*
Y00898249*
X01110889Y00869069D02*
X01120249Y00878429D01*
X01137089*
X01146449Y00869069*
X01145249Y00725749D02*
X01156249Y00736749D01*
X01135249Y00744249D02*
X01139153Y00740345D01*
X01141449Y00761049D02*
X01159939D01*
X01141049Y00774049D02*
X01159939D01*
X01134249Y00767249D02*
X01141049Y00774049D01*
X01090939Y00737439D02*
Y00761049D01*
X01081249Y00727749D02*
X01090249Y00736749D01*
X01081249Y00709249D02*
Y00727749D01*
Y00709249D02*
X01088799Y00701699D01*
X01098769*
X01078201Y00750201D02*
X01078249Y00750249D01*
X01078201Y00706297D02*
Y00750201D01*
Y00706297D02*
X01089299Y00695199D01*
X01098769*
X01139153Y00692345D02*
Y00740345D01*
Y00692345D02*
X01149299Y00682199D01*
X01157769*
X01145249Y00699249D02*
Y00725749D01*
Y00699249D02*
X01149299Y00695199D01*
X01157769*
X01142201Y00695297D02*
Y00746487D01*
Y00695297D02*
X01148799Y00688699D01*
X01157769*
X01066249Y00814249D02*
X01073949Y00806549D01*
X01090939*
X01078949Y00832549D02*
X01090939D01*
X01159939Y00767549D02*
X01215549D01*
X01236365Y00788365*
Y00884133*
X01194249Y00926249D02*
X01236365Y00884133D01*
X01169249Y00926249D02*
X01194249D01*
X01190489Y00735129D02*
Y00767549D01*
X01121535Y00795249D02*
Y00816845D01*
X01060153Y00797345D02*
Y00822595D01*
Y00797345D02*
X01070449Y00787049D01*
X01090939*
X01063201Y00801297D02*
Y00832247D01*
Y00801297D02*
X01070949Y00793549D01*
X01090939*
X01216249Y00850119D02*
X01226579Y00860449D01*
Y00832579D02*
Y00835049D01*
X01216249Y00827249D02*
Y00850119D01*
X01160925Y00801035D02*
X01200035D01*
X01159939Y00806549D02*
X01200549D01*
X01200035Y00801035D02*
X01209249Y00810249D01*
Y00815249*
X01226579Y00832579*
X01200549Y00806549D02*
X01206201Y00812201D01*
Y00817201*
X01216249Y00827249*
X01066249Y00814249D02*
Y00841899D01*
X01051509Y00856639D02*
X01066249Y00841899D01*
X01070249Y00835724D02*
X01079925Y00826049D01*
X01070249Y00835724D02*
Y00903249D01*
X01087438Y00920439*
X01073297Y00838201D02*
X01078949Y00832549D01*
X01076345Y00841297D02*
X01078593Y00839049D01*
X01096749Y00929249D02*
X01124953D01*
X01115279Y00890929D02*
X01128249Y00903899D01*
Y00925953*
X01124953Y00929249D02*
X01128249Y00925953D01*
X01095749Y00913249D02*
X01104249Y00921749D01*
X01106749Y00909249D02*
X01119249Y00921749D01*
X01073297Y00838201D02*
Y00900297D01*
X01086249Y00913249*
X01095749*
X01076345Y00841297D02*
Y00897345D01*
X01088249Y00909249*
X01106749*
G54D25*
X00836749Y00621249D02*
X00907749D01*
X00824749Y00644249D02*
Y00697249D01*
X00814511Y00822011D02*
X00848749Y00856249D01*
X00814511Y00785487D02*
Y00822011D01*
Y00785487D02*
X00816749Y00783249D01*
Y00755249D02*
Y00783249D01*
X00808509Y00720749D02*
Y00735989D01*
Y00747009D02*
X00816749Y00755249D01*
X00808509Y00735989D02*
Y00747009D01*
X00907749Y00555249D02*
X00915749Y00563249D01*
X00878749Y00555249D02*
X00907749D01*
X00752749Y00527249D02*
Y00702979D01*
X00807749Y00602249D02*
X00878749D01*
X00855249Y00535249D02*
Y00554749D01*
X00915749Y00563249D02*
Y00613249D01*
X00907749Y00621249D02*
X00915749Y00613249D01*
X00824749Y00633249D02*
X00836749Y00621249D01*
X00858749Y00856249D02*
X00868579Y00866079D01*
X00848749Y00856249D02*
X00858749D01*
X00868579Y00866079D02*
Y00871249D01*
Y00890929*
X00808509Y00713489D02*
Y00720749D01*
Y00713489D02*
X00824749Y00697249D01*
X00909749Y00714119D02*
X00929079Y00733449D01*
X00909749Y00684249D02*
Y00714119D01*
X00824749Y00633249D02*
Y00644249D01*
Y00670249D02*
X00895749D01*
X00909749Y00684249*
X01134249Y00621249D02*
X01205249D01*
X01122249Y00644249D02*
Y00697249D01*
X01112012Y00822011D02*
X01146249Y00856249D01*
X01112012Y00785487D02*
Y00822011D01*
Y00785487D02*
X01114249Y00783249D01*
Y00755249D02*
Y00783249D01*
X01106009Y00720749D02*
Y00735989D01*
Y00747009D02*
X01114249Y00755249D01*
X01106009Y00735989D02*
Y00747009D01*
X01205249Y00555249D02*
X01213249Y00563249D01*
X01176249Y00555249D02*
X01205249D01*
X01050249Y00527249D02*
Y00702979D01*
X01105249Y00602249D02*
X01176249D01*
X01152749Y00535249D02*
Y00554749D01*
X01213249Y00563249D02*
Y00613249D01*
X01205249Y00621249D02*
X01213249Y00613249D01*
X01122249Y00633249D02*
X01134249Y00621249D01*
X01156249Y00856249D02*
X01166079Y00866079D01*
X01146249Y00856249D02*
X01156249D01*
X01166079Y00866079D02*
Y00871249D01*
Y00890929*
X01106009Y00713489D02*
Y00720749D01*
Y00713489D02*
X01122249Y00697249D01*
X01207249Y00714119D02*
X01226579Y00733449D01*
X01207249Y00684249D02*
Y00714119D01*
X01122249Y00633249D02*
Y00644249D01*
Y00670249D02*
X01193249D01*
X01207249Y00684249*
G54D26*
X00792749Y00720359D02*
X00804639D01*
X00862439Y00839049D02*
X00880579D01*
X00883819Y00842289*
X00862439Y00845549D02*
X00871079D01*
X00883819Y00858289*
X00884319Y00858789*
X00862439Y00793549D02*
X00882949D01*
X00860269Y00701699D02*
X00878299D01*
X00878749Y00701249D02*
Y00714749D01*
X00873749Y00719749D02*
X00878749Y00714749D01*
X00873749Y00736749D02*
X00891369D01*
X00754009Y00755039D02*
X00762959D01*
X00775469Y00767549D02*
X00793439D01*
X00762959Y00755039D02*
X00775469Y00767549D01*
X00793439D02*
X00816049D01*
X00883819Y00857273D02*
Y00858289D01*
Y00857273D02*
X00898749Y00842343D01*
X00886249Y00871249D02*
X00898749Y00858749D01*
X00868579Y00871249D02*
X00886249D01*
X00857759Y00719749D02*
X00858749D01*
X00873749*
X00878749Y00701249D02*
X00909749D01*
X00883819Y00831319D02*
Y00842289D01*
X00844949Y00787049D02*
X00862439D01*
X00778549Y00800049D02*
X00793439D01*
X00824769Y00736249D02*
X00834749D01*
X00825009Y00721249D02*
X00834749D01*
X00801319Y00682249D02*
X00813749D01*
X00878749Y00685249D02*
X00891749D01*
X01090249Y00720359D02*
X01102139D01*
X01159939Y00839049D02*
X01178079D01*
X01181319Y00842289*
X01159939Y00845549D02*
X01168579D01*
X01181319Y00858289*
X01181819Y00858789*
X01159939Y00793549D02*
X01180449D01*
X01157769Y00701699D02*
X01175799D01*
X01176249Y00701249D02*
Y00714749D01*
X01171249Y00719749D02*
X01176249Y00714749D01*
X01171249Y00736749D02*
X01188869D01*
X01051509Y00755039D02*
X01060459D01*
X01072969Y00767549D02*
X01090939D01*
X01060459Y00755039D02*
X01072969Y00767549D01*
X01090939D02*
X01113549D01*
X01181319Y00857273D02*
Y00858289D01*
Y00857273D02*
X01196249Y00842343D01*
X01183749Y00871249D02*
X01196249Y00858749D01*
X01166079Y00871249D02*
X01183749D01*
X01155259Y00719749D02*
X01156249D01*
X01171249*
X01176249Y00701249D02*
X01207249D01*
X01181319Y00831319D02*
Y00842289D01*
X01142449Y00787049D02*
X01159939D01*
X01076049Y00800049D02*
X01090939D01*
X01122269Y00736249D02*
X01132249D01*
X01122509Y00721249D02*
X01132249D01*
X01098819Y00682249D02*
X0111125D01*
X01176249Y00685249D02*
X01189249D01*
G54D27*
X00841749Y00930249D02*
Y00962749D01*
X00822249Y00982249D02*
X00841749Y00962749D01*
Y00930249D02*
X00868579Y00903419D01*
Y00890929D02*
Y00903419D01*
X00836949Y00813049D02*
X00862439D01*
X01139249Y00930249D02*
Y00962749D01*
X01119749Y00982249D02*
X01139249Y00962749D01*
Y00930249D02*
X01166079Y00903419D01*
Y00890929D02*
Y00903419D01*
X01134449Y00813049D02*
X01159939D01*
G54D28*
X00787749Y00619249D02*
Y00627249D01*
X00794499Y00633999*
X00812749*
X00795749Y00591249D02*
D01*
X00783749Y00600749D02*
Y00615249D01*
X00787749Y00619249*
X00807749Y00602249D02*
Y00615249D01*
X00803749Y00619249D02*
X00807749Y00615249D01*
X01085249Y00619249D02*
Y00627249D01*
X01091999Y00633999*
X01110249*
X01093249Y00591249D02*
D01*
X01081249Y00600749D02*
Y00615249D01*
X01085249Y00619249*
X01105249Y00602249D02*
Y00615249D01*
X01101249Y00619249D02*
X01105249Y00615249D01*
G54D29*
X00899749Y00512249D02*
X00903749Y00516249D01*
X00882749Y00512249D02*
X00899749D01*
X01197249D02*
X01201249Y00516249D01*
X01180249Y00512249D02*
X01197249D01*
G54D30*
X00795749Y00581249D02*
Y00591249D01*
Y00600249*
X00783749Y00591249D02*
X00795749D01*
X01093249Y00581249D02*
Y00591249D01*
Y00600249*
X01081249Y00591249D02*
X01093249D01*
G54D31*
X00766749Y00580749D02*
Y00595749D01*
X00767749Y00581749D02*
X00783749D01*
X00831949Y00869069D02*
X00844769Y00856249D01*
X00766749Y00612749D02*
Y00632249D01*
X00778749Y00644249*
X00824749*
X00764249Y00648249D02*
Y00660749D01*
X01064249Y00580749D02*
Y00595749D01*
X01065249Y00581749D02*
X01081249D01*
X01129449Y00869069D02*
X01142269Y00856249D01*
X01064249Y00612749D02*
Y00632249D01*
X01076249Y00644249*
X01122249*
X01061749Y00648249D02*
Y00660749D01*
G54D32*
X00791749Y00565354D02*
X00807749Y00581354D01*
Y00581749*
Y00590249*
X01089249Y00565354D02*
X01105249Y00581354D01*
Y00581749*
Y00590249*
G54D33*
X00789749Y00510249D03*
X01087249D03*
G54D34*
X00788749Y00517749D03*
X01086249D03*
G54D35*
X00929149Y00516249D03*
X00916749Y00926249D03*
Y00986249D03*
X00871749Y00926249D03*
Y00986249D03*
X00929079Y00860449D03*
Y00835049D03*
Y00758849D03*
Y00733449D03*
X00868579Y00890929D03*
X00843179D03*
X00817779D03*
X00792379D03*
X01226649Y00516249D03*
X01214249Y00926249D03*
Y00986249D03*
X01169249Y00926249D03*
Y00986249D03*
X01226579Y00860449D03*
Y00835049D03*
Y00758849D03*
Y00733449D03*
X01166079Y00890929D03*
X01140679D03*
X01115279D03*
X01089879D03*
G54D36*
X00903749Y00516249D03*
X00893979Y00890929D03*
X01201249Y00516249D03*
X01191479Y00890929D03*
G54D37*
X00929079Y00809649D03*
Y00708049D03*
X01226579Y00809649D03*
Y00708049D03*
G54D38*
X00892739Y00722429D03*
X00754009Y00856639D03*
Y00843939D03*
Y00831239D03*
Y00818539D03*
Y00805839D03*
Y00793139D03*
Y00780439D03*
Y00767739D03*
Y00755039D03*
Y00742339D03*
Y00729639D03*
Y00716939D03*
Y00704239D03*
X01190239Y00722429D03*
X01051509Y00856639D03*
Y00843939D03*
Y00831239D03*
Y00818539D03*
Y00805839D03*
Y00793139D03*
Y00780439D03*
Y00767739D03*
Y00755039D03*
Y00742339D03*
Y00729639D03*
Y00716939D03*
Y00704239D03*
G54D39*
X00808749Y00528249D03*
X01106249D03*
G54D40*
X00788749Y00528249D03*
X01086249D03*
G54D41*
X00910749Y00541249D03*
X00890749D03*
X00855749Y00898249D03*
X00824035Y00795249D03*
X00795749Y00591249D03*
Y00581249D03*
Y00600249D03*
X00765049Y00780549D03*
X00774749Y00816249D03*
Y00826249D03*
X00836949Y00813049D03*
X00837749Y00744249D03*
X00843749Y00761249D03*
X00836749Y00767249D03*
X00780749Y00750249D03*
X00768749Y00687249D03*
Y00679249D03*
Y00695249D03*
X00926749Y00612249D03*
Y00592249D03*
Y00572249D03*
Y00552249D03*
X00870749Y00539249D03*
X00807749Y00551249D03*
X00837749D03*
X00822749D03*
Y00536249D03*
X00766749Y00553249D03*
X00776749Y00542249D03*
X00822749Y00581249D03*
X00842749D03*
X00862749D03*
X00882749D03*
X00902749D03*
X00818749Y00619249D03*
X00777749Y00630249D03*
X00926749Y00632249D03*
X00763749Y00522249D03*
X00813749Y00682249D03*
X00891749Y00685249D03*
X00834749Y00721249D03*
Y00736249D03*
X00838749Y00684249D03*
X00916749Y00791249D03*
X00777749Y00799249D03*
X00883749Y00831249D03*
X00916749Y00666249D03*
X00906749Y00656249D03*
X00886749D03*
X00866749D03*
X00846749D03*
X00926749Y00676249D03*
Y00656249D03*
X00769749Y00743249D03*
X00880749Y00753249D03*
X00905749D03*
X00899749Y00815249D03*
X00841749Y00803249D03*
Y00783249D03*
X00820749Y00908249D03*
X00763749Y00982249D03*
Y00952249D03*
Y00922249D03*
Y00892249D03*
X00843749Y00982249D03*
X00923749Y00952249D03*
X00893749D03*
X00863749D03*
X00893749Y00912249D03*
X00923749Y00882249D03*
X00899749Y00873249D03*
X00833749Y00952249D03*
X00785749Y00854249D03*
X00794749Y00655249D03*
X00906749Y00636249D03*
X00886749D03*
X00866749D03*
X00846749D03*
X01208249Y00541249D03*
X01188249D03*
X01153249Y00898249D03*
X01121535Y00795249D03*
X01093249Y00591249D03*
Y00581249D03*
Y00600249D03*
X01062549Y00780549D03*
X01072249Y00816249D03*
Y00826249D03*
X01134449Y00813049D03*
X01135249Y00744249D03*
X01141249Y00761249D03*
X01134249Y00767249D03*
X01078249Y00750249D03*
X01066249Y00687249D03*
Y00679249D03*
Y00695249D03*
X01224249Y00612249D03*
Y00592249D03*
Y00572249D03*
Y00552249D03*
X01168249Y00539249D03*
X01105249Y00551249D03*
X01135249D03*
X01120249D03*
Y00536249D03*
X01064249Y00553249D03*
X01074249Y00542249D03*
X01120249Y00581249D03*
X01140249D03*
X01160249D03*
X01180249D03*
X01200249D03*
X01116249Y00619249D03*
X01075249Y00630249D03*
X01224249Y00632249D03*
X01061249Y00522249D03*
X0111125Y00682249D03*
X01189249Y00685249D03*
X01132249Y00721249D03*
Y00736249D03*
X01136249Y00684249D03*
X01214249Y00791249D03*
X01075249Y00799249D03*
X01181249Y00831249D03*
X01214249Y00666249D03*
X01204249Y00656249D03*
X01184249D03*
X01164249D03*
X01144249D03*
X01224249Y00676249D03*
Y00656249D03*
X01067249Y00743249D03*
X01178249Y00753249D03*
X01203249D03*
X01197249Y00815249D03*
X01139249Y00803249D03*
Y00783249D03*
X01118249Y00908249D03*
X01061249Y00982249D03*
Y00952249D03*
Y00922249D03*
Y00892249D03*
X01141249Y00982249D03*
X01221249Y00952249D03*
X01191249D03*
X01161249D03*
X01191249Y00912249D03*
X01221249Y00882249D03*
X01197249Y00873249D03*
X01131249Y00952249D03*
X01083249Y00854249D03*
X01092249Y00655249D03*
X01204249Y00636249D03*
X01184249D03*
X01164249D03*
X01144249D03*
M02*